<svg xmlns="http://www.w3.org/2000/svg" xmlns:xlink="http://www.w3.org/1999/xlink" viewBox="0 0 4371.37 824.63"><defs><style>.cls-1,.cls-10,.cls-11,.cls-12,.cls-13,.cls-14,.cls-15,.cls-16,.cls-17,.cls-18,.cls-19,.cls-20,.cls-21,.cls-22,.cls-23,.cls-24,.cls-3,.cls-4,.cls-5,.cls-6,.cls-7,.cls-8,.cls-9{fill:none;}.cls-2{clip-path:url(#clip-path);}.cls-10,.cls-11,.cls-12,.cls-13,.cls-14,.cls-15,.cls-16,.cls-17,.cls-18,.cls-19,.cls-20,.cls-21,.cls-22,.cls-23,.cls-24,.cls-3,.cls-4,.cls-5,.cls-6,.cls-7,.cls-8,.cls-9{stroke-miterlimit:10;stroke-width:2px;}.cls-3{stroke:url(#Degradado_sin_nombre_4);}.cls-4{stroke:url(#Degradado_sin_nombre_4-2);}.cls-5{stroke:url(#Degradado_sin_nombre_4-3);}.cls-6{stroke:url(#Degradado_sin_nombre_4-4);}.cls-7{stroke:url(#Degradado_sin_nombre_4-5);}.cls-8{stroke:url(#Degradado_sin_nombre_4-6);}.cls-9{stroke:url(#Degradado_sin_nombre_4-7);}.cls-10{stroke:url(#Degradado_sin_nombre_4-8);}.cls-11{stroke:url(#Degradado_sin_nombre_4-9);}.cls-12{stroke:url(#Degradado_sin_nombre_4-10);}.cls-13{stroke:url(#Degradado_sin_nombre_4-11);}.cls-14{stroke:url(#Degradado_sin_nombre_4-12);}.cls-15{stroke:url(#Degradado_sin_nombre_4-13);}.cls-16{stroke:url(#Degradado_sin_nombre_4-14);}.cls-17{stroke:url(#Degradado_sin_nombre_4-15);}.cls-18{stroke:url(#Degradado_sin_nombre_4-16);}.cls-19{stroke:url(#Degradado_sin_nombre_4-17);}.cls-20{stroke:url(#Degradado_sin_nombre_4-18);}.cls-21{stroke:url(#Degradado_sin_nombre_4-19);}.cls-22{stroke:url(#Degradado_sin_nombre_4-20);}.cls-23{stroke:url(#Degradado_sin_nombre_4-21);}.cls-24{stroke:url(#Degradado_sin_nombre_4-22);}</style><clipPath id="clip-path" transform="translate(608.42 -120.21)"><rect class="cls-1" width="3073.32" height="1065.06"/></clipPath><linearGradient id="Degradado_sin_nombre_4" x1="-1476.91" y1="-137.95" x2="1679.74" y2="-1246.7" gradientTransform="matrix(1.1, 0.05, -0.58, 0.59, 1066.31, 743.12)" gradientUnits="userSpaceOnUse"><stop offset="0" stop-color="#e42228"/><stop offset="1" stop-color="#e7de37"/></linearGradient><linearGradient id="Degradado_sin_nombre_4-2" x1="-1474.53" y1="-122.98" x2="1690.41" y2="-1234.64" xlink:href="#Degradado_sin_nombre_4"/><linearGradient id="Degradado_sin_nombre_4-3" x1="-1472.09" y1="-107.86" x2="1701.13" y2="-1222.44" xlink:href="#Degradado_sin_nombre_4"/><linearGradient id="Degradado_sin_nombre_4-4" x1="-1469.61" y1="-92.6" x2="1711.91" y2="-1210.08" xlink:href="#Degradado_sin_nombre_4"/><linearGradient id="Degradado_sin_nombre_4-5" x1="-1464" y1="-68.44" x2="1725.81" y2="-1188.84" xlink:href="#Degradado_sin_nombre_4"/><linearGradient id="Degradado_sin_nombre_4-6" x1="-1455.84" y1="-37.03" x2="1742.26" y2="-1160.34" xlink:href="#Degradado_sin_nombre_4"/><linearGradient id="Degradado_sin_nombre_4-7" x1="-1447.56" y1="-5.27" x2="1758.83" y2="-1131.49" xlink:href="#Degradado_sin_nombre_4"/><linearGradient id="Degradado_sin_nombre_4-8" x1="-1439.19" y1="26.74" x2="1775.49" y2="-1102.4" xlink:href="#Degradado_sin_nombre_4"/><linearGradient id="Degradado_sin_nombre_4-9" x1="-1430.77" y1="58.91" x2="1792.2" y2="-1073.14" xlink:href="#Degradado_sin_nombre_4"/><linearGradient id="Degradado_sin_nombre_4-10" x1="-1422.3" y1="91.2" x2="1808.96" y2="-1043.76" xlink:href="#Degradado_sin_nombre_4"/><linearGradient id="Degradado_sin_nombre_4-11" x1="-1413.81" y1="123.58" x2="1825.75" y2="-1014.29" xlink:href="#Degradado_sin_nombre_4"/><linearGradient id="Degradado_sin_nombre_4-12" x1="-1405.28" y1="156.04" x2="1842.57" y2="-984.75" xlink:href="#Degradado_sin_nombre_4"/><linearGradient id="Degradado_sin_nombre_4-13" x1="-1396.74" y1="188.54" x2="1859.4" y2="-955.16" xlink:href="#Degradado_sin_nombre_4"/><linearGradient id="Degradado_sin_nombre_4-14" x1="-1388.19" y1="221.09" x2="1876.25" y2="-925.52" xlink:href="#Degradado_sin_nombre_4"/><linearGradient id="Degradado_sin_nombre_4-15" x1="-1379.62" y1="253.67" x2="1893.11" y2="-895.85" xlink:href="#Degradado_sin_nombre_4"/><linearGradient id="Degradado_sin_nombre_4-16" x1="-1371.04" y1="286.28" x2="1909.98" y2="-866.16" xlink:href="#Degradado_sin_nombre_4"/><linearGradient id="Degradado_sin_nombre_4-17" x1="-1362.46" y1="318.91" x2="1926.85" y2="-836.44" xlink:href="#Degradado_sin_nombre_4"/><linearGradient id="Degradado_sin_nombre_4-18" x1="-1353.89" y1="351.5" x2="1943.71" y2="-806.76" xlink:href="#Degradado_sin_nombre_4"/><linearGradient id="Degradado_sin_nombre_4-19" x1="-1345.28" y1="384.18" x2="1960.61" y2="-776.99" xlink:href="#Degradado_sin_nombre_4"/><linearGradient id="Degradado_sin_nombre_4-20" x1="-1336.68" y1="416.87" x2="1977.5" y2="-747.21" xlink:href="#Degradado_sin_nombre_4"/><linearGradient id="Degradado_sin_nombre_4-21" x1="-1332.05" y1="438.24" x2="1990.42" y2="-728.75" xlink:href="#Degradado_sin_nombre_4"/><linearGradient id="Degradado_sin_nombre_4-22" x1="-1333.74" y1="441.61" x2="1997.01" y2="-728.29" xlink:href="#Degradado_sin_nombre_4"/></defs><g id="Capa_2" data-name="Capa 2"><g id="Capa_2-2" data-name="Capa 2"><g class="cls-2"><path class="cls-3" d="M-388.18,304.85C-225.28,255.67-59.67,210,107.49,168.18c74.31-18.6,150.76-36.75,224.12-43.72,187.53-17.82,298.21,40.73,361.83,103.43C752,285.65,790.67,350,808.27,419.18,825.72,487.72,823.16,562,880.8,619.4s195.27,95,370.37,66.47c104.17-17,206.54-55.06,285.66-97.87s137.63-90.25,188.85-137.25c58.65-53.81,113.51-110.83,213.41-156.49,103.42-47.27,246.76-74.45,351-66.54,148.25,11.26,192.59,81.62,248.08,140,70.49,74.09,184.16,137.87,366.66,156.83s443.93-16,629.24-102.16" transform="translate(608.42 -120.21)"/><path class="cls-4" d="M-398.65,327.46C-239.28,279.3-77.13,234.74,86.49,194.09,159.23,176,234,158.43,305.86,151.53c182-17.41,291.14,37.78,354.74,97.65,58.07,54.67,95.1,116.65,115.28,182.13,20.31,65.88,23.48,137.39,83.23,192.22,35.67,32.73,96.71,58.49,174.15,70.94,59,9.48,126.51,11.46,202.13,1.87a899,899,0,0,0,171.73-39,913.08,913.08,0,0,0,134-57.46A969.81,969.81,0,0,0,1633.93,544c41.16-28.13,77.44-57.15,111.44-85.84,65.11-54.95,127.75-111.36,232.52-156.79,102.57-44.48,242.2-71.34,345-63.9,144.08,10.64,189.34,77.42,245,132.8A425.53,425.53,0,0,0,2637,426c69.27,44.84,163.7,79.57,292,91.23,181.08,16.47,436.56-20.93,615.91-106.41" transform="translate(608.42 -120.21)"/><path class="cls-5" d="M-409.13,350.08C-253.27,302.92-94.6,259.46,65.49,220c71.18-17.55,144.31-34.59,214.61-41.4,176.57-17,284,34.81,347.66,91.86,57.53,51.59,93.1,111.28,115.73,173,23.27,63.4,32.22,131.85,93.92,184.21,38.28,32.49,100.76,57.61,177.73,71.35,60.28,10.77,127.73,14.93,204.47,7.82,59.11-5.48,121.76-16.47,182.86-35.7a914.47,914.47,0,0,0,143-59.28,1094,1094,0,0,0,99.18-58.24c43.66-28.93,83-58.72,120.37-88,71.59-56.1,141.94-112,251.63-157.1,101.64-41.83,237.65-68.23,339-61.27,139.9,10,186.06,73.22,242,125.66a425.3,425.3,0,0,0,68.46,52.63c68.92,42.34,162,74.81,287,84.51,179.69,13.93,429.2-25.84,602.6-110.68" transform="translate(608.42 -120.21)"/><path class="cls-6" d="M-419.6,372.7c152.33-46.16,307.54-88.51,464.09-126.78,69.62-17,141.08-33.5,209.85-40.24,171.09-16.61,276.92,31.85,340.59,86.08,57,48.51,91.25,106,116.17,163.81,26.35,61.1,41.08,126.23,104.61,176.21,41,32.22,104.81,56.77,181.32,71.76a806.25,806.25,0,0,0,206.81,13.75c61.14-3.67,127.76-12.81,194-32.43,54.86-16.26,106-37.93,152-61.11a1198,1198,0,0,0,105.61-60.56c46.22-29.61,88.54-60.28,129.3-90.17,78-57.23,156.06-112.59,270.73-157.39,100.63-39.32,233.12-65.35,333-58.64,135.75,9.1,182.76,69,238.95,118.51,19.67,17.32,41.87,34.4,67.85,49.5,68.6,39.84,160.32,70,282.08,77.79,178.32,11.36,421.83-30.74,589.27-114.93" transform="translate(608.42 -120.21)"/><path class="cls-7" d="M-430.07,395.32c148.81-45.15,300.54-86.4,453.56-123.48,68.05-16.49,137.85-32.42,205.09-39.08,165.62-16.22,269.77,28.89,333.51,80.29,56.35,45.45,89.6,100.76,116.63,154.65,29.56,59,50,120.53,115.29,168.2,43.7,31.93,108.86,56,184.9,72.17,62.92,13.4,130.22,22,209.15,19.7,63.19-1.85,133.77-9.17,205.09-29.17,58-16.27,112.1-38.74,161-62.93,40.41-20.08,77.53-41.39,112-62.89,48.74-30.39,94.1-61.85,138.23-92.33,84.52-58.38,170.12-113.29,289.84-157.7,99.55-36.93,228.58-62.3,327-56,131.59,8.41,179.46,64.82,235.92,111.37,19.65,16.2,41.59,32.34,67.23,46.37,68.29,37.34,158.65,65.2,277.12,71.07,177,8.76,414.46-35.63,575.95-119.19" transform="translate(608.42 -120.21)"/><path class="cls-8" d="M-440.55,417.94c145.3-44.15,293.56-84.29,443-120.19,66.5-16,134.64-31.33,200.35-37.92C363,244,465.41,285.77,529.25,334.34c55.72,42.39,88.18,95.55,117.08,145.49,33,57,59.12,114.74,126,160.2,46.49,31.6,112.91,55.23,188.49,72.58,64.24,14.75,131.48,25.61,211.48,25.64,65.26,0,139.77-5.55,216.21-25.91,61.17-16.29,118.19-39.56,170-64.75,42.56-20.79,81.82-43,118.44-65.23,51.23-31.16,99.64-63.41,147.16-94.49,91-59.52,184.13-114.06,309-158,98.4-34.64,224-59.26,321-53.38,127.41,7.72,176.13,60.63,232.87,104.23,19.63,15.08,41.33,30.28,66.62,43.24,68,34.83,157,60.34,272.16,64.35,175.62,6.13,407.09-40.53,562.62-123.44" transform="translate(608.42 -120.21)"/><path class="cls-9" d="M-451,440.56c141.77-43.14,286.56-82.18,432.5-116.89,64.93-15.44,131.41-30.25,195.59-36.76,154.66-15.42,255.36,23,319.34,68.72C551.47,395,583.42,446,613.94,492c36.56,55.1,68.27,108.88,136.68,152.19,49.32,31.23,116.94,54.52,192.06,73,65.57,16.13,132.75,29.27,213.83,31.58,67.31,1.92,145.76-1.94,227.32-22.64,64.32-16.33,124.27-40.38,179-66.57C1607.55,638,1649,615,1687.7,592c53.74-32,105.2-65,156.09-96.66,97.46-60.66,198.1-114.9,328.06-158.3,97.21-32.46,219.48-56.2,315.05-50.74,123.24,7,172.79,56.43,229.82,97.08,19.61,14,41.08,28.21,66,40.11,67.72,32.31,155.32,55.43,267.19,57.64,174.3,3.43,399.72-45.44,549.29-127.7" transform="translate(608.42 -120.21)"/><path class="cls-10" d="M-461.49,463.17c138.25-42.13,279.57-80.06,422-113.59C23.85,334.67,88.66,320.42,151.31,314,300.49,299,399.42,334,463.57,376.92c54.37,36.33,86.09,85.1,118,127.17C621.94,557.37,659,607,728.92,648.28c52.2,30.81,121,53.83,195.65,73.4,66.88,17.53,134,33,216.16,37.52,69.38,3.84,151.75,1.65,238.45-19.38,67.46-16.37,130.35-41.2,188-68.39,46.85-22.23,90.4-46.08,131.28-69.89,56.23-32.74,110.75-66.55,165-98.82,103.92-61.81,212-115.83,347.16-158.6,96-30.38,214.93-53.15,309.07-48.12,119.06,6.37,169.42,52.25,226.78,89.94,19.57,12.86,40.82,26.14,65.4,37,67.47,29.78,153.68,50.48,262.23,50.92,173,.7,392.35-50.33,536-132" transform="translate(608.42 -120.21)"/><path class="cls-11" d="M-472,485.79c134.74-41.13,272.58-78,411.45-110.29,61.81-14.39,125-28.09,186.08-34.44,143.7-14.61,240.82,17.14,305.18,57.15,53.63,33.34,85.42,79.79,118.42,118,44.45,51.48,86.76,96.92,158.06,136.18,55.12,30.35,125,53.18,199.24,73.81,68.19,19,135.29,36.7,218.49,43.46,71.45,5.81,157.74,5.24,249.57-16.11,70.6-16.43,136.43-42,197-70.21,49-22.94,94.69-47.65,137.7-72.22,58.73-33.54,116.3-68.12,174-101,110.39-62.95,225.9-116.84,366.28-158.9,94.71-28.38,210.37-50.09,303.07-45.49,114.9,5.71,166,48.08,223.74,82.8,19.53,11.75,40.58,24.05,64.79,33.85,67.24,27.23,152,45.48,257.26,44.2,171.72-2.08,385-55.23,522.65-136.21" transform="translate(608.42 -120.21)"/><path class="cls-12" d="M-482.44,508.41c131.21-40.12,265.59-75.84,400.92-107,60.24-13.87,121.73-27,181.32-33.28C238,353.92,333.3,382.39,397.9,419.5c52.87,30.37,91.6,68.93,118.87,108.85,56.75,40.24,96.07,90.84,168.75,128.18,58.06,29.83,129,52.55,202.82,74.22,69.5,20.41,136.57,40.47,220.84,49.4,73.51,7.79,163.72,8.81,260.68-12.85,73.75-16.49,142.51-42.83,206-72,51.15-23.66,99-49.23,144.12-74.55,61.22-34.33,121.85-69.68,182.88-103.15,116.86-64.09,239.74-118,385.38-159.21,93.42-26.46,205.83-47,297.09-42.85C2696,320.57,2748,359.42,2806,391.16c19.48,10.65,40.34,22,64.17,30.72,67,24.65,150.42,40.43,252.3,37.48,170.44-4.93,377.62-60.13,509.33-140.47" transform="translate(608.42 -120.21)"/><path class="cls-13" d="M-492.91,531c127.69-39.12,258.59-73.73,390.39-103.7C-43.84,414,16,401.41,74,395.21c132.75-13.81,226.14,11.4,291,45.58,52.08,27.43,91,63,119.32,99.69,61.12,37.09,105.4,84.68,179.44,120.17,61,29.26,133,52,206.41,74.63,70.8,21.89,137.83,44.27,223.17,55.35,75.58,9.8,169.71,12.38,271.8-9.6,76.89-16.54,148.6-43.64,215-73.84,53.3-24.38,103.27-50.8,150.54-76.88,63.71-35.14,127.4-71.25,191.81-105.32,123.33-65.23,253.56-119.18,404.49-159.5,92.11-24.61,201.28-43.95,291.11-40.23,106.54,4.42,159.22,39.77,217.65,68.51,19.43,9.56,40.12,19.86,63.56,27.6,66.82,22,148.79,35.33,247.34,30.76,169.18-7.85,370.25-65,496-144.73" transform="translate(608.42 -120.21)"/><path class="cls-14" d="M-503.38,553.65c124.17-38.11,251.6-71.62,379.86-100.4,57.11-12.82,115.27-24.84,171.8-31,127.27-13.42,218.74,8.57,283.94,39.79A373.42,373.42,0,0,1,452,552.61c65.49,33.95,114.77,78.47,190.14,112.17,64,28.62,137,51.38,210,75,72.1,23.38,139.09,48.09,225.51,61.28,77.63,11.85,175.7,15.94,282.92-6.33,80-16.61,154.68-44.45,224-75.67,55.44-25.08,107.55-52.37,157-79.2,66.2-35.94,133-72.82,200.74-107.49C2072,466,2209.56,411.9,2365.81,372.61c90.78-22.83,196.73-40.87,285.12-37.59,102.37,3.79,155.79,35.65,214.61,61.36,19.37,8.47,39.9,17.75,62.95,24.47,66.64,19.42,147.17,30.19,242.38,24,167.91-10.84,362.88-69.93,482.67-149" transform="translate(608.42 -120.21)"/><path class="cls-15" d="M-513.86,576.26c120.65-37.1,244.61-69.5,369.34-97.1,55.55-12.29,112-23.75,167.05-29.8,121.79-13,211.3,5.81,276.85,34A388,388,0,0,1,419.6,564.74c69.85,30.8,124.14,72.2,200.83,104.16,67,27.94,141,50.83,213.57,75.45,73.38,24.91,140.34,51.95,227.85,67.23,79.68,13.91,181.67,19.49,294-3.07,83.16-16.69,160.76-45.27,233-77.49,57.58-25.8,111.83-53.95,163.37-81.53,68.69-36.75,138.5-74.39,209.67-109.65,136.26-67.52,281.1-122,442.71-160.11,89.43-21.11,192.17-37.77,279.13-35,98.19,3.18,152.34,31.56,211.57,54.22,19.3,7.39,39.67,15.62,62.34,21.34,66.46,16.76,145.54,25,237.41,17.32,166.65-13.91,355.51-74.83,469.35-153.24" transform="translate(608.42 -120.21)"/><path class="cls-16" d="M-524.33,598.88c117.13-36.1,237.62-67.39,358.81-93.8,54-11.76,108.81-22.67,162.29-28.64,116.31-12.62,203.84,3.09,269.78,28.22,49.51,18.86,84.89,51.18,120.66,72.21C455.49,617,520.74,642.75,598.73,673c70,27.19,145,50.29,217.15,75.86,74.66,26.46,141.59,55.82,230.19,73.16a800,800,0,0,0,305.16.2c86.3-16.77,166.84-46.09,242-79.31,59.74-26.51,116.06-55.64,169.8-83.86,71.1-37.69,144-76,218.6-111.82,142.73-68.66,294.83-123.54,461.81-160.41,88.08-19.44,187.62-34.67,273.15-32.33,94,2.58,148.88,27.49,208.52,47.08,19.23,6.32,39.46,13.48,61.73,18.21,66.3,14.07,143.91,19.74,232.45,10.6,165.38-17.07,348.14-79.73,456-157.49" transform="translate(608.42 -120.21)"/><path class="cls-17" d="M-534.8,621.5c113.61-35.09,230.62-65.29,348.27-90.51C-134.1,519.76-80.93,509.4-29,503.51c110.84-12.21,196.36.45,262.7,22.43,48.62,16.11,85.07,45,121.11,63.06,73.59,36.91,142.92,59.51,222.21,88.15,73.08,26.4,149,49.79,220.74,76.27,75.92,28,142.82,59.71,232.52,79.11,83.75,18.11,193.64,26.57,316.28,3.46,89.45-16.86,172.92-46.91,251-81.13,61.88-27.23,120.34-57.21,176.21-86.19,73.6-38.49,149.6-77.53,227.53-114,149.2-69.81,308.55-125.26,480.92-160.71,86.72-17.84,183.07-31.56,267.17-29.7,89.83,2,145.4,23.45,205.48,39.93,19.16,5.26,39.24,11.33,61.11,15.08,66.15,11.33,142.28,14.44,227.48,3.89,164.11-20.34,340.78-84.64,442.71-161.76" transform="translate(608.42 -120.21)"/><path class="cls-18" d="M-545.28,644.12c110.09-34.09,223.64-63.18,337.75-87.21,50.87-10.71,102.37-20.51,152.79-26.32,105.36-11.81,188.85-2.11,255.61,16.64,47.71,13.41,85.23,38.61,121.56,53.9,79,33.23,152.3,53.09,232.9,80.15,76.12,25.55,153,49.29,224.33,76.68,77.17,29.62,144,63.62,234.86,85,85.77,20.23,199.62,30.1,327.39,6.72,92.59-16.94,179-47.72,259.95-83,64-27.95,124.64-58.79,182.64-88.52C1860.59,639,1939.65,599.17,2021,562.11c155.66-70.95,322.25-127.11,500-161,85.37-16.28,178.52-28.43,261.18-27.07,85.66,1.41,141.94,19.46,202.44,32.8,19.09,4.2,39,9.16,60.5,11.94,66,8.55,140.64,9.09,222.52-2.83,162.81-23.7,333.41-89.53,429.38-166" transform="translate(608.42 -120.21)"/><path class="cls-19" d="M-555.75,666.74c106.57-33.08,216.64-61.07,327.22-83.92,49.3-10.18,99.14-19.42,148-25.16,99.88-11.41,181.33-4.58,248.53,10.86,46.8,10.76,85.33,32.09,122,44.74,84.33,29.08,161.69,46.64,243.6,72.14,79.15,24.65,156.93,48.81,227.9,77.09,78.41,31.25,145.26,67.55,237.2,91,87.79,22.38,205.6,33.64,338.51,10,95.73-17,185.09-48.54,269-84.77,66.17-28.66,128.92-60.36,189-90.85,78.59-40.09,160.7-80.66,245.39-118.32,162.14-72.08,335.94-129.11,519.14-161.31,84-14.76,174-25.28,255.19-24.43,81.48.85,138.46,15.49,199.39,25.65,19,3.17,38.82,7,59.89,8.81,65.85,5.73,139,3.69,217.56-9.55,161.48-27.2,326-94.43,416.06-170.26" transform="translate(608.42 -120.21)"/><path class="cls-20" d="M-566.22,689.36a3213.44,3213.44,0,0,1,316.69-80.62c47.74-9.66,95.91-18.34,143.27-24,94.41-11,173.83-7,241.46,5.07,45.89,8.17,85.34,25.44,122.45,35.58,89.64,24.48,171.06,40.15,254.29,64.14,82.2,23.69,160.88,48.34,231.49,77.5C823.06,799.91,889.89,838.51,983,864c89.79,24.54,211.55,36.93,349.64,13.25,98.83-17.29,191.16-49.36,277.93-86.59,68.33-29.38,133.21-61.94,195.48-93.18,81.08-40.89,166.25-82.23,254.32-120.48,168.6-73.23,349.62-131.29,538.24-161.61,82.65-13.29,169.41-22.13,249.21-21.81,77.3.31,135,11.57,196.35,18.51,18.95,2.14,38.6,4.79,59.28,5.68,65.68,2.85,137.3-1.77,212.59-16.27,160.11-30.82,318.67-99.33,402.73-174.52" transform="translate(608.42 -120.21)"/><path class="cls-21" d="M-576.7,712c99.53-31.07,202.66-56.84,306.17-77.32,46.17-9.13,92.69-17.25,138.51-22.84,88.93-10.61,166.34-9.24,234.38-.71,45,5.64,85.24,18.69,122.9,26.42,94.82,19.46,180.43,33.62,265,56.13,85.24,22.69,164.82,47.9,235.07,77.91C806.16,806.11,873,847,967.19,874.43c91.78,26.73,217.53,40.51,360.75,16.52,102-17.35,197.25-50.18,286.93-88.41,70.47-30.1,137.5-63.51,201.89-95.51,83.58-41.69,171.8-83.8,263.25-122.65,175.07-74.37,363.3-133.62,557.35-161.91,81.31-11.85,164.86-18.94,243.23-19.18,73.12-.22,131.54,7.68,193.3,11.37,18.89,1.12,38.38,2.58,58.67,2.56a984.94,984.94,0,0,0,207.63-23c158.69-34.6,311.3-104.23,389.4-178.78" transform="translate(608.42 -120.21)"/><path class="cls-22" d="M-587.17,734.59c96-30.06,195.67-54.73,295.64-74,44.61-8.61,89.46-16.17,133.76-21.68,83.45-10.21,158.87-11.41,227.29-6.5,44.14,3.17,85,11.85,123.35,17.26,99.83,14.07,189.78,27.07,275.67,48.13,88.27,21.64,168.75,47.45,238.66,78.32,82,36.23,148.85,79.4,244.21,108.81,93.76,28.92,223.53,44.08,371.87,19.78,105.12-17.4,203.33-51,295.92-90.24,72.62-30.8,141.79-65.07,208.32-97.83,86.07-42.48,177.35-85.37,272.17-124.81,181.54-75.52,377-136.14,576.47-162.22a2005.61,2005.61,0,0,1,237.23-16.54c69-.73,128.12,3.82,190.27,4.22,18.82.12,38.15.36,58.05-.57A1066.47,1066.47,0,0,0,3364.38,387c157.2-38.54,303.93-109.13,376.08-183" transform="translate(608.42 -120.21)"/><path class="cls-23" d="M-597.64,757.21c92.48-29.06,188.67-52.62,285.11-70.73,43-8.08,86.23-15.09,129-20.52A1550.43,1550.43,0,0,1,36.68,653.68c43.32.75,84.62,5,123.8,8.1,104.61,8.39,199.12,20.48,286.36,40.12,91.31,20.55,172.67,47,242.24,78.73,83.24,37.93,150,83.38,246.55,114.75,95.74,31.13,229.52,47.66,383,23C1426.89,901,1528,866.62,1623.54,826.37c74.76-31.52,146.07-66.65,214.73-100.16,88.57-43.28,182.9-86.94,281.11-127,188-76.66,390.65-138.84,595.57-162.52,78.64-9.08,155.75-12.49,231.25-13.91,64.77-1.22,124.71,0,187.22-2.92,18.78-.88,37.91-1.87,57.44-3.7a1164.07,1164.07,0,0,0,197.7-36.43c155.63-42.65,296.57-114,362.76-187.29" transform="translate(608.42 -120.21)"/><path class="cls-24" d="M-608.11,779.83c241.58-76.18,510.84-111.09,736.2-105.92S536.66,722.07,671,785.17c84.4,39.65,151.19,87.35,248.89,120.69s235.5,51.24,394.1,26.31C1512.45,901,1687.65,813.92,1849,735.8c265.39-128.46,584.51-259.87,904.71-292,159.49-16,304.25-5.23,466.27-28.18C3444.66,383.84,3677.53,283,3762.19,181" transform="translate(608.42 -120.21)"/></g></g></g></svg>