<svg xmlns="http://www.w3.org/2000/svg" xmlns:xlink="http://www.w3.org/1999/xlink" viewBox="0 0 3747.83 776.21"><defs><style>.cls-1,.cls-10,.cls-11,.cls-12,.cls-13,.cls-14,.cls-15,.cls-16,.cls-17,.cls-18,.cls-19,.cls-20,.cls-21,.cls-22,.cls-23,.cls-24,.cls-3,.cls-4,.cls-5,.cls-6,.cls-7,.cls-8,.cls-9{fill:none;}.cls-2{clip-path:url(#clip-path);}.cls-10,.cls-11,.cls-12,.cls-13,.cls-14,.cls-15,.cls-16,.cls-17,.cls-18,.cls-19,.cls-20,.cls-21,.cls-22,.cls-23,.cls-24,.cls-3,.cls-4,.cls-5,.cls-6,.cls-7,.cls-8,.cls-9{stroke-miterlimit:10;stroke-width:2px;}.cls-3{stroke:url(#Degradado_sin_nombre_221);}.cls-4{stroke:url(#Degradado_sin_nombre_221-2);}.cls-5{stroke:url(#Degradado_sin_nombre_221-3);}.cls-6{stroke:url(#Degradado_sin_nombre_221-4);}.cls-7{stroke:url(#Degradado_sin_nombre_221-5);}.cls-8{stroke:url(#Degradado_sin_nombre_221-6);}.cls-9{stroke:url(#Degradado_sin_nombre_221-7);}.cls-10{stroke:url(#Degradado_sin_nombre_221-8);}.cls-11{stroke:url(#Degradado_sin_nombre_221-9);}.cls-12{stroke:url(#Degradado_sin_nombre_221-10);}.cls-13{stroke:url(#Degradado_sin_nombre_221-11);}.cls-14{stroke:url(#Degradado_sin_nombre_221-12);}.cls-15{stroke:url(#Degradado_sin_nombre_221-13);}.cls-16{stroke:url(#Degradado_sin_nombre_221-14);}.cls-17{stroke:url(#Degradado_sin_nombre_221-15);}.cls-18{stroke:url(#Degradado_sin_nombre_221-16);}.cls-19{stroke:url(#Degradado_sin_nombre_221-17);}.cls-20{stroke:url(#Degradado_sin_nombre_221-18);}.cls-21{stroke:url(#Degradado_sin_nombre_221-19);}.cls-22{stroke:url(#Degradado_sin_nombre_221-20);}.cls-23{stroke:url(#Degradado_sin_nombre_221-21);}.cls-24{stroke:url(#Degradado_sin_nombre_221-22);}</style><clipPath id="clip-path" transform="translate(409.66 -194.39)"><rect class="cls-1" width="3073.32" height="1065.06"/></clipPath><linearGradient id="Degradado_sin_nombre_221" x1="-133.05" y1="-266.08" x2="3200.49" y2="-266.08" gradientTransform="matrix(1, 0.03, 0.03, 0.7, -65.26, 644.02)" gradientUnits="userSpaceOnUse"><stop offset="0.01" stop-color="#83bb33"/><stop offset="1" stop-color="#e7de37"/></linearGradient><linearGradient id="Degradado_sin_nombre_221-2" x1="-143.05" y1="-256.62" x2="3210.87" y2="-256.62" xlink:href="#Degradado_sin_nombre_221"/><linearGradient id="Degradado_sin_nombre_221-3" x1="-153.06" y1="-247.11" x2="3221.25" y2="-247.11" xlink:href="#Degradado_sin_nombre_221"/><linearGradient id="Degradado_sin_nombre_221-4" x1="-163.06" y1="-237.54" x2="3231.63" y2="-237.54" xlink:href="#Degradado_sin_nombre_221"/><linearGradient id="Degradado_sin_nombre_221-5" x1="-173.07" y1="-227.92" x2="3242.02" y2="-227.92" xlink:href="#Degradado_sin_nombre_221"/><linearGradient id="Degradado_sin_nombre_221-6" x1="-183.08" y1="-218.23" x2="3252.4" y2="-218.23" xlink:href="#Degradado_sin_nombre_221"/><linearGradient id="Degradado_sin_nombre_221-7" x1="-193.09" y1="-208.48" x2="3262.78" y2="-208.48" xlink:href="#Degradado_sin_nombre_221"/><linearGradient id="Degradado_sin_nombre_221-8" x1="-203.1" y1="-187.62" x2="3273.16" y2="-187.62" xlink:href="#Degradado_sin_nombre_221"/><linearGradient id="Degradado_sin_nombre_221-9" x1="-213.11" y1="-166.07" x2="3283.55" y2="-166.07" xlink:href="#Degradado_sin_nombre_221"/><linearGradient id="Degradado_sin_nombre_221-10" x1="-223.12" y1="-144.58" x2="3293.93" y2="-144.58" xlink:href="#Degradado_sin_nombre_221"/><linearGradient id="Degradado_sin_nombre_221-11" x1="-233.13" y1="-123.17" x2="3304.31" y2="-123.17" xlink:href="#Degradado_sin_nombre_221"/><linearGradient id="Degradado_sin_nombre_221-12" x1="-243.14" y1="-101.84" x2="3314.69" y2="-101.84" xlink:href="#Degradado_sin_nombre_221"/><linearGradient id="Degradado_sin_nombre_221-13" x1="-253.16" y1="-80.61" x2="3325.08" y2="-80.61" xlink:href="#Degradado_sin_nombre_221"/><linearGradient id="Degradado_sin_nombre_221-14" x1="-263.17" y1="-59.48" x2="3335.46" y2="-59.48" xlink:href="#Degradado_sin_nombre_221"/><linearGradient id="Degradado_sin_nombre_221-15" x1="-273.19" y1="-38.44" x2="3345.84" y2="-38.44" xlink:href="#Degradado_sin_nombre_221"/><linearGradient id="Degradado_sin_nombre_221-16" x1="-283.21" y1="-17.49" x2="3356.22" y2="-17.49" xlink:href="#Degradado_sin_nombre_221"/><linearGradient id="Degradado_sin_nombre_221-17" x1="-293.23" y1="3.36" x2="3366.61" y2="3.36" xlink:href="#Degradado_sin_nombre_221"/><linearGradient id="Degradado_sin_nombre_221-18" x1="-303.26" y1="24.13" x2="3376.99" y2="24.13" xlink:href="#Degradado_sin_nombre_221"/><linearGradient id="Degradado_sin_nombre_221-19" x1="-313.28" y1="44.83" x2="3387.37" y2="44.83" xlink:href="#Degradado_sin_nombre_221"/><linearGradient id="Degradado_sin_nombre_221-20" x1="-323.31" y1="65.46" x2="3397.75" y2="65.46" xlink:href="#Degradado_sin_nombre_221"/><linearGradient id="Degradado_sin_nombre_221-21" x1="-333.34" y1="86.04" x2="3408.14" y2="86.04" xlink:href="#Degradado_sin_nombre_221"/><linearGradient id="Degradado_sin_nombre_221-22" x1="-343.37" y1="106.57" x2="3418.52" y2="106.57" xlink:href="#Degradado_sin_nombre_221"/></defs><g id="Capa_2" data-name="Capa 2"><g id="Capa_2-2" data-name="Capa 2"><g class="cls-2"><path class="cls-3" d="M3104.29,275.1c-142.38-25-286.71-46.77-431.94-65.18-64.57-8.19-130.9-15.8-193.48-14.35-160,3.7-247.4,63.68-294.7,122.47-43.56,54.15-69.62,111.85-77.45,171.48-7.76,59.09,1.93,121-40.87,174.76s-155.07,98.86-305.65,92.37c-89.59-3.86-179.8-25.58-250.87-53.55S1384.08,641.23,1336.11,607c-54.92-39.21-107-81.48-195.88-109.78-92-29.3-215.67-37.81-302.77-20.85-123.9,24.13-154.17,87.42-195.06,141.73-51.94,69-141.34,133.66-293.35,167.64S-27,816.36-192.06,762.67" transform="translate(409.66 -194.39)"/><path class="cls-4" d="M3115.42,293c-142.12-25-286.48-46.25-431.3-63.63-64.56-7.72-130.72-14.75-193.14-13q-14.47.39-28.19,1.38c-140.46,9.93-221.14,64.53-267.15,118.67C2151,388.93,2123.93,445.32,2114,503.45s-3.13,118.86-46.86,171.67a154.35,154.35,0,0,1-22.85,22c-54.25,42.9-155.61,75.08-284.8,69.64-4-.16-8-.37-12-.6-85.92-5.11-171.44-26-240.12-52.54-71.1-27.59-125.49-61.73-174.82-94.71-63-42.13-126.89-84.23-224.29-111.92-94.4-26.84-217.76-35.34-307.22-18.78C681.12,510.43,650.65,571.31,610,622.81c-52,65.4-139.44,127-286.59,158.23C174.2,812.7-43.12,807.23-202.39,754.13" transform="translate(409.66 -194.39)"/><path class="cls-5" d="M3126.55,310.88c-141.86-25.06-286.25-45.73-430.66-62.08-64.56-7.26-130.54-13.71-192.79-11.7q-14.45.47-28.14,1.5c-138.75,10.18-220.25,63.09-267.86,116.14-45.72,50.94-73.81,106-85.82,162.65-12.08,57-8.19,116.69-52.86,168.58a162.07,162.07,0,0,1-23.25,21.71c-55.36,42.57-157.13,74.54-286.39,69.24q-6-.25-12.07-.6c-86.24-5-171.88-25.74-241.34-52.15-71.13-27.2-125.9-61.39-176.41-93.3-71.17-45-146.71-87.07-252.72-114-96.67-24.6-219.82-32.85-311.67-16.7C648.71,520.49,618.14,579,577.51,627.55,525.7,689.48,440,747.87,297.7,776.37c-146.35,29.31-356.91,21.74-510.42-30.78" transform="translate(409.66 -194.39)"/><path class="cls-6" d="M3137.68,328.77c-141.6-25.1-286-45.21-430-60.53-64.56-6.79-130.36-12.66-192.45-10.37q-14.4.53-28.07,1.6c-137.06,10.44-219.35,61.67-268.58,113.62-46.76,49.34-75.93,103.14-90,158.24-14.29,55.95-13.12,114.64-58.86,165.49a166.94,166.94,0,0,1-23.65,21.4c-56.36,42.39-158.67,74-288,68.83q-6.06-.24-12.13-.59c-86.55-4.94-172.32-25.5-242.56-51.75-71.15-26.82-126.43-60.91-178-91.9-79.45-47.73-166.45-90-281.14-116.18C945.38,504.09,822.38,496.28,728.13,512c-111.81,18.64-142.57,74.56-183.07,120.28-51.74,58.4-135.66,113.61-273,139.41C128.48,798.65-75.3,789-223,737.05" transform="translate(409.66 -194.39)"/><path class="cls-7" d="M3148.8,346.66c-141.34-25.13-285.77-44.69-429.37-59-64.55-6.34-130.19-11.63-192.11-9.06q-14.34.58-28,1.71C2364,291,2280.9,340.59,2230,391.44c-47.78,47.76-78.09,100.27-94.17,153.82-16.5,54.94-18.15,112.51-64.86,162.4a172.58,172.58,0,0,1-24,21.09c-57.44,42.11-160.19,73.48-289.57,68.43q-6.09-.24-12.18-.58c-86.87-4.86-172.76-25.26-243.77-51.35-71.19-26.44-127.05-60.33-179.62-90.5-87.82-50.4-186.14-93.11-309.56-118.31-101-20.62-223.89-27.82-320.56-12.56C584,540.9,553,594.16,512.61,637c-51.69,54.88-133.8,106.87-266.27,130C105.59,791.6-91.4,779.86-233.38,728.51" transform="translate(409.66 -194.39)"/><path class="cls-8" d="M3159.93,364.55c-141.08-25.17-285.54-44.18-428.72-57.42-64.56-5.87-130-10.58-191.78-7.74q-14.29.66-27.94,1.83c-133.66,10.94-217.47,58.83-270,108.57-48.78,46.19-80.27,97.39-98.35,149.41-18.74,53.92-23.18,110.37-70.85,159.31a181.85,181.85,0,0,1-24.45,20.78c-58.54,41.82-161.72,72.94-291.17,68-4.07-.16-8.15-.34-12.24-.57-87.17-4.77-173.25-24.88-245-51-71.27-25.91-127.71-59.64-181.21-89.08-96.27-53-205.8-96.31-338-120.45-103.1-18.83-225.9-25.27-325-10.48-103.62,15.47-134.86,66-175.08,106-51.65,51.35-132,100.09-259.49,120.6-138,22.19-328.16,8.4-464.38-42.38" transform="translate(409.66 -194.39)"/><path class="cls-9" d="M3171.06,382.44c-140.82-25.21-285.31-43.66-428.08-55.87-64.56-5.4-129.84-9.54-191.43-6.41q-14.27.72-27.89,1.93c-132,11.19-216.5,57.43-270.72,106.05-49.76,44.62-82.48,94.53-102.53,145-21,52.92-28.22,108.23-76.85,156.22a189.82,189.82,0,0,1-24.85,20.47c-59.63,41.52-163.24,72.4-292.76,67.61q-6.14-.23-12.29-.56c-87.48-4.69-173.69-24.62-246.2-50.56-71.3-25.51-128.43-58.9-182.81-87.68-104.77-55.45-225.42-99.61-366.4-122.58-105.18-17.14-227.92-22.7-329.45-8.41-99.51,14-131,61.71-171.08,98.83C396.1,694.3,317.59,739.74,195,757.67c-135.24,19.77-318.57,3.94-449-46.25" transform="translate(409.66 -194.39)"/><path class="cls-10" d="M3182.19,400.33c-140.56-25.24-285.08-43.14-427.44-54.32-64.55-4.94-129.67-8.49-191.09-5.09q-14.22.79-27.83,2c-130.25,11.45-215.5,56.05-271.42,103.53-50.73,43.08-84.74,91.66-106.71,140.58-23.33,51.92-33.28,106.09-82.85,153.13a198.29,198.29,0,0,1-25.26,20.16c-60.73,41.23-164.76,71.88-294.35,67.21q-6.15-.23-12.34-.54c-87.8-4.62-174.14-24.38-247.42-50.17-71.34-25.12-129.17-58.09-184.41-86.28-113.33-57.82-245-103-394.82-124.71-107.24-15.53-229.91-20.09-333.9-6.33C487,572.16,455.17,617,415.27,651.21,363.67,695.5,287,737.6,169.32,753c-132.51,17.33-309-.5-433.69-50.11" transform="translate(409.66 -194.39)"/><path class="cls-11" d="M3193.32,418.21c-140.3-25.27-284.85-42.61-426.8-52.76C2702,361,2637,358,2575.77,361.69c-9.45.56-18.7,1.3-27.76,2.15-128.53,12-214.51,54.67-272.14,101-51.67,41.53-87,88.77-110.89,136.16-25.66,50.91-38.33,103.93-88.85,150a209,209,0,0,1-25.65,19.85c-61.84,40.92-166.29,71.34-296,66.8q-6.18-.21-12.4-.53c-88.1-4.53-174.57-24.13-248.63-49.78-71.37-24.72-129.94-57.23-186-84.87C1185.55,642.42,1042.88,596,884.25,575.68c-109.29-14-231.89-17.45-338.34-4.26-91.22,11.31-123.36,53.14-163.09,84.52-51.59,40.77-126.53,79.48-239.18,92.37-129.8,14.86-299.41-4.95-418.34-54" transform="translate(409.66 -194.39)"/><path class="cls-12" d="M3204.44,436.1c-140-25.31-284.61-42.09-426.15-51.2-64.55-4-129.31-6.41-190.4-2.45-9.43.61-18.66,1.39-27.71,2.26C2433.35,397,2346.7,438,2287.33,483.2c-52.6,40-89.32,85.89-115.07,131.74-28,49.9-43.38,101.78-94.84,147a222.53,222.53,0,0,1-26.06,19.54c-62.94,40.6-167.81,70.8-297.54,66.39q-6.21-.21-12.45-.52c-88.42-4.45-175-23.88-249.85-49.38-71.39-24.33-130.72-56.34-187.6-83.46a1425.19,1425.19,0,0,0-451.67-129C740.92,573,618.39,570.72,509.46,583.31c-87,10.06-119.55,48.84-159.09,77.37-51.6,37.22-124.75,72.51-232.4,83C-9.15,756-171.86,734.24-285,685.8" transform="translate(409.66 -194.39)"/><path class="cls-13" d="M3215.57,454c-139.77-25.35-284.38-41.58-425.5-49.65-64.55-3.55-129.15-5.37-190.07-1.12-9.39.65-18.61,1.46-27.64,2.36-125.13,12.5-212.45,52-273.57,96a445.88,445.88,0,0,0-119.25,127.33c-30.41,48.87-48.44,99.62-100.84,143.86A234.64,234.64,0,0,1,2052.24,792c-64,40.28-169.33,70.26-299.12,66q-6.24-.19-12.51-.51c-88.73-4.36-175.46-23.64-251.07-49-71.42-24-131.52-55.42-189.2-82.06C1161,662.06,996.58,612.58,820.25,595.31,706.88,584.2,584.43,583.25,473,595.19c-82.88,8.88-115.75,44.54-155.09,70.22-51.62,33.68-123,65.5-225.64,73.55-124.45,9.77-280.25-13.84-387.65-61.7" transform="translate(409.66 -194.39)"/><path class="cls-14" d="M3226.7,471.88c-139.51-25.38-284.15-41.06-424.86-48.1-64.55-3.08-129-4.32-189.73.2q-14,1-27.58,2.48c-123.43,12.74-211.4,50.65-274.28,93.44a467.19,467.19,0,0,0-123.42,122.92C2154,690.64,2133.31,740.27,2080,783.59a249.28,249.28,0,0,1-26.86,18.92c-65.17,40-170.86,69.74-300.72,65.58q-6.27-.2-12.56-.5c-89-4.28-175.9-23.4-252.28-48.59-71.46-23.56-132.34-54.45-190.81-80.65-148-66.33-323.33-117.62-508.5-133.23-115.42-9.74-237.78-9.28-351.69,2-78.7,7.76-111.95,40.24-151.09,63.07-51.66,30.13-121.26,58.42-218.87,64.15C-55.19,741.44-204,716-305.69,668.72" transform="translate(409.66 -194.39)"/><path class="cls-15" d="M3237.83,489.77c-139.25-25.42-283.91-40.54-424.22-46.55-64.55-2.62-128.79-3.28-189.39,1.53-9.33.73-18.5,1.62-27.52,2.58-121.72,13-210.33,49.36-275,90.92a491.86,491.86,0,0,0-127.6,118.5c-35.29,46.76-58.59,95.29-112.84,137.68A264.73,264.73,0,0,1,2054,813.05c-66.29,39.63-172.39,69.2-302.31,65.17q-6.29-.19-12.62-.49c-89.35-4.2-176.33-23.16-253.49-48.19-71.48-23.18-133.15-53.47-192.41-79.25-156.8-68.21-342.9-121.49-536.92-135.36-117.47-8.41-239.72-6.43-356.13,4C325.61,625.65,292,654.88,253,674.87c-51.7,26.57-120.09,44-212.09,54.74C-77.51,743.46-220.14,706.87-316,660.18" transform="translate(409.66 -194.39)"/><path class="cls-16" d="M3249,507.66c-139-25.46-283.68-40-423.58-45-64.54-2.15-128.61-2.23-189,2.85-9.31.78-18.46,1.7-27.46,2.69-120,13.24-209.26,48.08-275.7,88.4a519.51,519.51,0,0,0-131.79,114.09c-37.77,45.67-63.66,93.11-118.83,134.59a285.88,285.88,0,0,1-27.66,18.31C1987.49,862.88,1881,892.25,1751,888.35q-6.32-.18-12.67-.48c-89.66-4.11-176.77-22.93-254.71-47.79-71.51-22.81-134-52.47-194-77.85-165.61-70-362.48-125.44-565.35-137.49-119.52-7.11-241.66-3.51-360.57,6.1-70.33,5.68-104.41,31.59-143.11,48.77-51.76,23-118.2,36.85-205.32,45.33-116,11.28-251.5-27.2-341.6-73.3" transform="translate(409.66 -194.39)"/><path class="cls-17" d="M3260.08,525.55c-138.72-25.49-283.44-39.5-422.93-43.44-64.54-1.7-128.44-1.2-188.7,4.16q-13.92,1.25-27.4,2.81c-118.32,13.47-208.18,46.82-276.41,85.87a550.75,550.75,0,0,0-136,109.68c-40.26,44.55-68.73,90.93-124.82,131.5a304.35,304.35,0,0,1-28.07,18c-68.54,39-175.44,68.14-305.5,64.36-4.22-.12-8.47-.27-12.72-.46-90-4-177.21-22.72-255.93-47.41-71.53-22.43-134.79-51.44-195.6-76.43C1111.59,702.48,904,644.71,692.26,634.55c-121.57-5.84-243.58-.49-365,8.18-66.13,4.72-100.64,27.24-139.1,41.61C136.3,703.71,71.82,714.15-10.41,720.26-124,728.7-252.33,688.62-336.67,643.1" transform="translate(409.66 -194.39)"/><path class="cls-18" d="M3271.21,543.44c-138.46-25.53-283.21-39-422.28-41.89-64.55-1.23-128.27-.15-188.37,5.49-9.25.87-18.36,1.86-27.33,2.91-116.63,13.71-207.1,45.58-277.13,83.35A586,586,0,0,0,2216,698.56C2173.18,742,2142.14,787.31,2085.13,827a326.73,326.73,0,0,1-28.47,17.69c-69.66,38.61-177,67.6-307.09,64q-6.36-.17-12.78-.45c-90.28-4-177.63-22.49-257.14-47-71.55-22.07-135.62-50.41-197.2-75-183.3-73.3-401.65-133.57-622.19-141.76C536.63,639.77,414.75,647,290.8,654.61c-61.93,3.81-96.89,22.87-135.11,34.46-51.92,15.74-114.42,22.85-191.78,26.51-111.29,5.28-232.33-36.08-310.91-81" transform="translate(409.66 -194.39)"/><path class="cls-19" d="M3282.34,561.33c-138.2-25.57-283-38.47-421.64-40.34-64.54-.76-128.09.89-188,6.81q-13.84,1.37-27.28,3c-115,13.73-206,44.37-277.84,80.83A625.73,625.73,0,0,0,2223.24,712.5c-45.31,42.23-78.9,86.55-136.82,125.32-8.94,6-18.55,11.8-28.87,17.38-70.8,38.25-178.49,67.06-308.69,63.55q-6.39-.18-12.83-.45c-90.59-3.87-178-22.42-258.36-46.61-71.53-21.84-136.44-49.35-198.8-73.63-192.17-74.82-421.24-137.73-650.6-143.89-125.7-3.38-247.44,5.89-373.92,12.32-57.73,2.94-93.13,18.49-131.11,27.31-52,12.08-112.66,21.9-185,17.11C-170.48,703.7-284.52,670.37-357.33,626" transform="translate(409.66 -194.39)"/><path class="cls-20" d="M3293.47,579.22c-137.94-25.6-282.75-38-421-38.79-64.54-.3-127.92,1.94-187.68,8.14Q2671,550,2657.57,551.7c-113.25,14-204.89,43.18-278.55,78.3a670.64,670.64,0,0,0-148.5,96.43c-47.84,41-84,84.36-142.82,122.24-9.12,5.87-18.85,11.58-29.27,17.06-71.93,37.89-180,66.53-310.27,63.15q-6.42-.17-12.89-.44c-90.91-3.79-178.47-22.19-259.58-46.22-71.56-21.45-137.27-48.28-200.39-72.22-201.08-76.25-440.85-142-679-146-127.78-2.18-249.35,9.32-378.36,14.4-53.54,2.11-89.38,14.08-127.12,20.16-52.07,8.38-110.93,14.33-178.23,7.69-106.08-10.46-213.17-45-280.22-88.76" transform="translate(409.66 -194.39)"/><path class="cls-21" d="M3304.6,597.11c-137.68-25.64-282.52-37.43-420.36-37.24-64.54.17-127.74,3-187.34,9.46q-13.74,1.5-27.15,3.24c-111.56,14.23-203.8,42-279.27,75.78a719.93,719.93,0,0,0-152.67,92c-50.39,39.79-89.08,82.15-148.82,119.14-9.31,5.76-19.17,11.37-29.67,16.76-73.07,37.52-181.54,66-311.87,62.74q-6.45-.16-12.94-.43c-91.22-3.71-178.91-22-260.79-45.82-71.59-21.07-138.1-47.2-202-70.81-210-77.6-460.47-150.4-707.45-148.16C434.42,675,313,694.3,181.47,690.26c-49.35-1.51-85.62,9.65-123.13,13-52.13,4.66-109.17,6.67-171.46-1.71C-216.51,687.64-316.7,652.12-378,608.93" transform="translate(409.66 -194.39)"/><path class="cls-22" d="M3315.72,615c-137.41-25.68-282.28-36.91-419.71-35.68-64.53.62-127.56,4-187,10.78q-13.7,1.54-27.09,3.34c-109.85,14.48-202.69,40.87-280,73.26-61.44,25.75-113.47,56-156.86,87.61-52.94,38.52-94.22,79.85-154.82,116.05q-14.23,8.45-30.07,16.45c-74.26,37-183.06,65.46-313.46,62.33-4.31-.11-8.64-.24-13-.42-91.52-3.62-179.34-21.71-262-45.42-71.62-20.69-138.92-46.11-203.6-69.41C1049.2,755,788,680.42,532.27,683.6,400.34,685.24,279,706.26,145,702.15c-45.15-1.39-81.83,5.2-119.12,5.85-52.19.92-107.37-1.09-164.69-11.12-100.64-17.61-194-53.88-249.53-96.49" transform="translate(409.66 -194.39)"/><path class="cls-23" d="M3326.85,632.88c-137.15-25.7-282-36.39-419.06-34.12-64.54,1.09-127.4,5.06-186.66,12.1q-13.66,1.62-27,3.46c-108.16,14.73-201.59,39.74-280.69,70.73-62.3,24.41-115.92,52.92-161,83.19-55.48,37.23-99.28,77.69-160.81,113-9.68,5.52-19.8,10.91-30.48,16.14-75.36,36.71-184.58,64.92-315,61.92q-6.49-.15-13-.4c-91.84-3.55-179.78-21.48-263.22-45-71.65-20.3-139.74-45-205.19-68-227.91-80.06-499.73-155-764.3-152.42-134,1.32-255.21,24.48-391.69,20.62-41-1.16-78,.74-115.13-1.3-52.22-2.86-105.49-9-157.92-20.52-97.75-21.59-184.42-58.33-234.18-100.36" transform="translate(409.66 -194.39)"/><path class="cls-24" d="M3338,650.77c-211.5-39.77-442.15-42.26-631.71-15.58s-339.74,80.85-446.62,147C2192.48,823.74,2141,870.29,2062,907.88S1868.52,974.13,1732.22,969C1561.64,962.6,1405,907.13,1261,857.77,1024.11,776.6,741.62,698.31,468.28,703.22,332.13,705.67,211.12,729,72.13,725.91c-192.7-4.33-399.35-65.58-481.11-142.6" transform="translate(409.66 -194.39)"/></g></g></g></svg>