<svg xmlns="http://www.w3.org/2000/svg" xmlns:xlink="http://www.w3.org/1999/xlink" viewBox="0 0 3503.7 1447.99"><defs><style>.cls-1,.cls-10,.cls-11,.cls-12,.cls-13,.cls-14,.cls-15,.cls-16,.cls-17,.cls-18,.cls-19,.cls-2,.cls-20,.cls-21,.cls-22,.cls-3,.cls-4,.cls-5,.cls-6,.cls-7,.cls-8,.cls-9{fill:none;stroke-miterlimit:10;stroke-width:2px;}.cls-1{stroke:url(#Degradado_sin_nombre_4);}.cls-2{stroke:url(#Degradado_sin_nombre_4-2);}.cls-3{stroke:url(#Degradado_sin_nombre_4-3);}.cls-4{stroke:url(#Degradado_sin_nombre_4-4);}.cls-5{stroke:url(#Degradado_sin_nombre_4-5);}.cls-6{stroke:url(#Degradado_sin_nombre_4-6);}.cls-7{stroke:url(#Degradado_sin_nombre_4-7);}.cls-8{stroke:url(#Degradado_sin_nombre_4-8);}.cls-9{stroke:url(#Degradado_sin_nombre_4-9);}.cls-10{stroke:url(#Degradado_sin_nombre_4-10);}.cls-11{stroke:url(#Degradado_sin_nombre_4-11);}.cls-12{stroke:url(#Degradado_sin_nombre_4-12);}.cls-13{stroke:url(#Degradado_sin_nombre_4-13);}.cls-14{stroke:url(#Degradado_sin_nombre_4-14);}.cls-15{stroke:url(#Degradado_sin_nombre_4-15);}.cls-16{stroke:url(#Degradado_sin_nombre_4-16);}.cls-17{stroke:url(#Degradado_sin_nombre_4-17);}.cls-18{stroke:url(#Degradado_sin_nombre_4-18);}.cls-19{stroke:url(#Degradado_sin_nombre_4-19);}.cls-20{stroke:url(#Degradado_sin_nombre_4-20);}.cls-21{stroke:url(#Degradado_sin_nombre_4-21);}.cls-22{stroke:url(#Degradado_sin_nombre_4-22);}</style><linearGradient id="Degradado_sin_nombre_4" x1="160.96" y1="989.48" x2="3317.61" y2="-119.27" gradientUnits="userSpaceOnUse"><stop offset="0" stop-color="#e42228"/><stop offset="1" stop-color="#e7de37"/></linearGradient><linearGradient id="Degradado_sin_nombre_4-2" x1="162.93" y1="1003.28" x2="3327.87" y2="-108.38" xlink:href="#Degradado_sin_nombre_4"/><linearGradient id="Degradado_sin_nombre_4-3" x1="164.94" y1="1017.19" x2="3338.16" y2="-97.38" xlink:href="#Degradado_sin_nombre_4"/><linearGradient id="Degradado_sin_nombre_4-4" x1="168.64" y1="1035.92" x2="3350.15" y2="-81.56" xlink:href="#Degradado_sin_nombre_4"/><linearGradient id="Degradado_sin_nombre_4-5" x1="176.94" y1="1067.73" x2="3366.74" y2="-52.66" xlink:href="#Degradado_sin_nombre_4"/><linearGradient id="Degradado_sin_nombre_4-6" x1="185.24" y1="1099.55" x2="3383.33" y2="-23.75" xlink:href="#Degradado_sin_nombre_4"/><linearGradient id="Degradado_sin_nombre_4-7" x1="193.55" y1="1131.38" x2="3399.92" y2="5.17" xlink:href="#Degradado_sin_nombre_4"/><linearGradient id="Degradado_sin_nombre_4-8" x1="201.85" y1="1163.22" x2="3416.52" y2="34.1" xlink:href="#Degradado_sin_nombre_4"/><linearGradient id="Degradado_sin_nombre_4-9" x1="210.17" y1="1195.08" x2="3433.12" y2="63.04" xlink:href="#Degradado_sin_nombre_4"/><linearGradient id="Degradado_sin_nombre_4-10" x1="218.48" y1="1226.94" x2="3449.73" y2="91.99" xlink:href="#Degradado_sin_nombre_4"/><linearGradient id="Degradado_sin_nombre_4-11" x1="226.8" y1="1258.81" x2="3466.34" y2="120.94" xlink:href="#Degradado_sin_nombre_4"/><linearGradient id="Degradado_sin_nombre_4-12" x1="235.12" y1="1290.68" x2="3482.95" y2="149.91" xlink:href="#Degradado_sin_nombre_4"/><linearGradient id="Degradado_sin_nombre_4-13" x1="243.44" y1="1322.56" x2="3499.56" y2="178.87" xlink:href="#Degradado_sin_nombre_4"/><linearGradient id="Degradado_sin_nombre_4-14" x1="251.76" y1="1354.45" x2="3516.18" y2="207.85" xlink:href="#Degradado_sin_nombre_4"/><linearGradient id="Degradado_sin_nombre_4-15" x1="260.09" y1="1386.34" x2="3532.8" y2="236.83" xlink:href="#Degradado_sin_nombre_4"/><linearGradient id="Degradado_sin_nombre_4-16" x1="268.41" y1="1418.23" x2="3549.42" y2="265.81" xlink:href="#Degradado_sin_nombre_4"/><linearGradient id="Degradado_sin_nombre_4-17" x1="276.74" y1="1450.13" x2="3566.04" y2="294.79" xlink:href="#Degradado_sin_nombre_4"/><linearGradient id="Degradado_sin_nombre_4-18" x1="285.07" y1="1482.03" x2="3582.66" y2="323.77" xlink:href="#Degradado_sin_nombre_4"/><linearGradient id="Degradado_sin_nombre_4-19" x1="293.4" y1="1513.92" x2="3599.28" y2="352.76" xlink:href="#Degradado_sin_nombre_4"/><linearGradient id="Degradado_sin_nombre_4-20" x1="301.72" y1="1545.82" x2="3615.9" y2="381.74" xlink:href="#Degradado_sin_nombre_4"/><linearGradient id="Degradado_sin_nombre_4-21" x1="306.1" y1="1566.47" x2="3628.56" y2="399.48" xlink:href="#Degradado_sin_nombre_4"/><linearGradient id="Degradado_sin_nombre_4-22" x1="304.12" y1="1569.04" x2="3634.88" y2="399.13" xlink:href="#Degradado_sin_nombre_4"/></defs><g id="Capa_2" data-name="Capa 2"><g id="Capa_2-2" data-name="Capa 2"><path class="cls-1" d="M.68,532A3620.72,3620.72,0,0,1,313.33,270.61c48.5-36.11,99.23-71.67,156.88-88.83,147.34-43.87,293.54,42.35,402.48,139.06a1590.63,1590.63,0,0,1,263.62,301.34c73.9,109.87,135.41,230.69,234.6,319.22s250.78,138.6,378.17,78.36c75.8-35.84,131.91-105.83,163.81-181.62s42-157.47,46.08-237.83c4.71-92,3.39-188.95,50.87-271,49.15-85,150.15-140.5,247.3-136,138.22,6.45,237,117.14,335.15,207.38C2717,515.34,2870.22,609.8,3044.75,626s371.23-61.41,458.08-216"/><path class="cls-2" d="M11,569.5a3341.53,3341.53,0,0,1,308.16-256c47.89-35.18,98-69.72,154.66-86.61,111.06-33.09,221.6,7.17,315.94,69.36a831.91,831.91,0,0,1,81,61.22,1551.62,1551.62,0,0,1,263.37,288.9c74.37,105.78,136.3,223,234.85,308.69,54.67,47.54,123.38,85,195.68,101.2,64.63,14.5,132.6,11.75,194.92-16.85a276.33,276.33,0,0,0,25.75-13.5c65.76-39,114.33-103.86,144.22-173.26a538.81,538.81,0,0,0,20.83-57.45c18.33-60.78,27.14-123.91,33.13-185.89,9.14-93.71,15-190.17,66.05-271.51,50.64-80.77,147.83-134.95,242.82-131,135,5.64,232.46,110.62,329.11,195.4q13.67,12,27.77,23.62c117.34,96.62,257,172.09,413.19,183.13,168.82,11.7,357.56-66.77,439.91-218.37"/><path class="cls-3" d="M21.31,607.05A3090.87,3090.87,0,0,1,325,356.29c47.28-34.25,96.71-67.76,152.45-84.39,109.08-32.53,217.79,5.08,311.09,64A825.27,825.27,0,0,1,868.89,394,1514.1,1514.1,0,0,1,1132,670.47c74.84,101.67,137.27,215.21,235.1,298.15,57.05,48.36,127.51,87.19,201.87,104.94,66.35,15.81,136.69,14.13,201.15-14.6a278.41,278.41,0,0,0,26.7-13.67c68.22-39.67,118-106.7,149.44-178.23a593.5,593.5,0,0,0,22.14-59c19.77-62.27,30.84-126.82,39.7-189.85,13.58-95.41,26.57-191.31,81.23-272,51.9-76.61,145.52-129.39,238.34-126,131.78,4.84,227.91,104.11,323.07,183.43q13.45,11.22,27.31,22.07c115.38,90.18,251.43,159,402.15,166.08C3243.32,598.94,3424.1,519.64,3502,371"/><path class="cls-4" d="M31.62,644.6A2859.88,2859.88,0,0,1,330.8,399.14C377.48,365.82,426.25,333.32,481,317c107.09-32,214,3,306.24,58.61a820.7,820.7,0,0,1,79.71,55,1477,1477,0,0,1,262.88,264c75.3,97.58,138.32,207.37,235.35,287.62,59.44,49.16,131.64,89.43,208,108.68,68.07,17.11,140.79,16.52,207.38-12.36a279.51,279.51,0,0,0,27.65-13.82c70.68-40.35,121.64-109.54,154.67-183.2,8.92-19.93,16.64-40.2,23.44-60.57,21.21-63.75,34.54-129.73,46.27-193.79,18-97.11,37.94-192.39,96.41-272.48,52.93-72.51,143.2-123.84,233.86-121,128.56,4,223.35,97.59,317,171.44q13.23,10.46,26.86,20.54c113.4,83.72,245.8,146.28,391.1,149,157.4,3,330.22-77.49,403.58-223.15"/><path class="cls-5" d="M41.94,682.15A2649.31,2649.31,0,0,1,336.62,442c46.07-32.39,94.19-63.87,148-80,105.1-31.41,210.16.89,301.37,53.23a814.37,814.37,0,0,1,79.06,51.92,1440.42,1440.42,0,0,1,262.63,251.59c75.77,93.48,139.44,199.44,235.6,277.08,61.86,49.95,135.78,91.66,214.23,112.43,69.8,18.4,144.89,18.89,213.63-10.12a283,283,0,0,0,28.59-14c73.14-41,125.29-112.38,159.89-188.17,9.33-20.47,17.48-41.27,24.75-62.13,22.66-65.22,38.24-132.64,52.84-197.74,22.44-98.81,49.16-193.43,111.59-273,53.75-68.47,140.89-118.28,229.38-116.07,125.34,3.23,218.8,91.08,311,159.47q13,9.68,26.4,19c111.44,77.27,240.19,133.31,380.06,132,151.7-1.46,316.55-82.86,385.42-225.54"/><path class="cls-6" d="M52.25,719.7A2458.55,2458.55,0,0,1,342.44,484.82c45.47-31.46,92.93-61.91,145.83-77.74,103.12-30.85,206.35-1.2,296.52,47.85a813.85,813.85,0,0,1,78.4,48.82A1404.74,1404.74,0,0,1,1125.57,742.9c76.24,89.39,140.63,191.46,235.85,266.55,64.32,50.71,139.91,93.9,220.42,116.17,71.51,19.7,149,21.28,219.86-7.87a288.76,288.76,0,0,0,29.54-14.15c75.6-41.71,128.94-115.23,165.12-193.15,9.73-21,18.31-42.34,26-63.69,24.11-66.7,41.95-135.54,59.42-201.68,26.87-100.51,60.22-194.46,126.77-273.45,54.35-64.52,138.57-112.73,224.9-111.09,122.12,2.42,214.24,84.56,305,147.49q12.81,8.91,25.95,17.44c109.46,70.83,234.58,120.35,369,114.91,146-5.91,302.88-88.22,367.25-227.93"/><path class="cls-7" d="M62.57,757.25A2281.58,2281.58,0,0,1,348.26,527.66c44.87-30.53,91.67-60,143.62-75.52,101.13-30.29,202.54-3.29,291.66,42.47a811.59,811.59,0,0,1,77.75,45.72A1371.05,1371.05,0,0,1,1123.43,767c76.7,85.3,141.87,183.41,236.1,256,66.78,51.45,144,96.14,226.59,119.91,73.24,21,153.09,23.66,226.11-5.62a288.37,288.37,0,0,0,30.48-14.32c78.06-42.38,132.59-118.06,170.34-198.12,10.14-21.54,19.15-43.41,27.35-65.25,25.55-68.17,45.65-138.45,66-205.63,31.31-102.21,71.13-195.49,142-273.93,54.77-60.66,136.26-107.17,220.42-106.12,118.9,1.62,209.69,78,298.91,135.52q12.6,8.13,25.49,15.9c107.5,64.37,229,107.36,358,97.85,140.33-10.35,289.21-93.58,349.09-230.33"/><path class="cls-8" d="M72.88,794.79A2118.22,2118.22,0,0,1,354.09,570.51c44.25-29.61,90.4-58,141.4-73.31,99.15-29.73,198.72-5.38,286.81,37.1a809.59,809.59,0,0,1,77.1,42.61,1337.68,1337.68,0,0,1,261.88,214.28c77.16,81.19,143.16,175.3,236.35,245.47,69.29,52.18,148.17,98.39,232.78,123.66,75,22.31,157.19,26,232.34-3.38a290.36,290.36,0,0,0,31.43-14.48c80.52-43.06,136.24-120.9,175.57-203.08,10.54-22.09,20-44.49,28.65-66.82,27-69.65,49.35-141.35,72.55-209.57,35.74-103.91,81.87-196.58,157.14-274.42C2343.1,331.67,2422,287,2504,287.43c115.68.81,205.14,71.54,292.87,123.54q12.38,7.36,25,14.35c105.54,57.92,223.41,94.38,346.92,80.79,134.66-14.8,275.55-98.94,330.93-232.71"/><path class="cls-9" d="M83.19,832.34c85.4-81.29,178.47-154.46,276.72-219,43.65-28.68,89.15-56.06,139.2-71.09C596.27,513.1,694,534.79,781.06,574A808.64,808.64,0,0,1,857.5,613.5a1305.38,1305.38,0,0,1,261.63,201.83c77.63,77.1,144.51,167.15,236.61,234.94,71.81,52.86,152.3,100.63,239,127.41,76.68,23.6,161.28,28.42,238.58-1.14a295.1,295.1,0,0,0,32.37-14.64c83-43.74,139.89-123.75,180.79-208.06,10.95-22.62,20.81-45.56,30-68.38,28.43-71.13,53-144.26,79.12-213.52C2195.69,566.33,2248,474.21,2327.84,397c55.08-53.24,131.63-96.06,211.46-96.17,112.46,0,200.58,65,286.83,111.56q12.16,6.6,24.58,12.81c103.56,51.48,217.82,81.38,335.87,63.74,129-19.27,261.88-104.3,312.77-235.1"/><path class="cls-10" d="M93.51,869.89C177.2,790,268.84,718.64,365.73,656.19c43-27.75,87.89-54.11,137-68.87,95.17-28.6,191.09-9.56,277.09,26.34a811.56,811.56,0,0,1,75.79,36.42A1274.45,1274.45,0,0,1,1117,839.48c78.09,73,145.88,158.93,236.85,224.4C1428.2,1117.4,1510.27,1166.75,1599,1195c78.4,24.9,165.39,30.81,244.82,1.11a299.24,299.24,0,0,0,33.32-14.81c85.45-44.41,143.55-126.58,186-213,11.36-23.16,21.65-46.63,31.27-69.94,29.87-72.6,56.75-147.16,85.69-217.46,44.6-107.31,102.88-199,187.5-275.39,55-49.69,129.32-90.5,207-91.19,109.24-.8,196,58.51,280.79,99.58q12,5.82,24.12,11.27c101.6,45,212.25,68.36,324.83,46.68,123.33-23.75,248.21-109.67,294.6-237.49"/><path class="cls-11" d="M103.82,907.44C185.8,829,276,759.39,371.55,699c42.44-26.82,86.63-52.16,134.78-66.65,93.19-28,187.28-11.65,272.24,21a813.21,813.21,0,0,1,75.13,33.31,1244.83,1244.83,0,0,1,261.14,177c78.56,68.91,147.3,150.68,237.1,213.87,76.94,54.14,160.57,105.11,251.33,134.89,80.12,26.21,169.48,33.19,251,3.36a302.59,302.59,0,0,0,34.27-15c87.91-45.1,147.2-129.43,191.24-218,11.76-23.69,22.48-47.69,32.56-71.5,31.32-74.08,60.46-150.07,92.27-221.41,49-109,113.14-200.36,202.68-275.87,54.83-46.25,127-85,202.5-86.22,106-1.6,191.47,52,274.76,87.61q11.73,5.06,23.66,9.72c99.62,38.57,206.67,55.34,313.78,29.63,117.68-28.25,234.54-115,276.44-239.89"/><path class="cls-12" d="M114.13,945c80.27-77,169.06-144.84,263.24-203.11,41.84-25.9,85.37-50.21,132.57-64.44C601.15,650,693.41,663.7,777.32,693c25.68,8.89,50.58,19.21,74.48,30.21a1216.68,1216.68,0,0,1,260.89,164.53c79,64.81,148.75,142.37,237.36,203.33,79.54,54.72,164.7,107.35,257.51,138.64,81.84,27.5,173.58,35.57,257.29,5.59a303.94,303.94,0,0,0,35.21-15.13c90.37-45.77,150.85-132.27,196.46-223,12.17-24.24,23.32-48.77,33.87-73.07,32.76-75.55,64.16-153,98.84-225.35,53.47-110.71,123.25-201.91,217.85-276.36,54.55-42.93,124.7-79.39,198-81.24,102.8-2.41,186.92,45.48,268.72,75.63q11.51,4.28,23.2,8.17c97.66,32.13,201.1,42.3,302.74,12.58,112-32.77,220.87-120.4,258.27-242.28"/><path class="cls-13" d="M124.45,982.54C203,907,290.37,840.91,383.19,784.72c41.23-25,84.11-48.26,130.37-62.22,89.22-26.92,179.65-15.84,262.52,10.21,25.38,7.9,50.06,17.16,73.82,27.11a1190.55,1190.55,0,0,1,260.65,152.09c79.49,60.71,150.21,134,237.6,192.8,82.18,55.26,168.83,109.58,263.69,142.38,83.57,28.8,177.68,38,263.53,7.84a309.24,309.24,0,0,0,36.16-15.29c92.83-46.46,154.5-135.11,201.69-228,12.57-24.77,24.15-49.84,35.17-74.63,34.2-77,67.86-155.88,105.41-229.3,57.9-112.41,133.21-203.66,233-276.84,54.17-39.71,122.38-73.84,193.55-76.27,99.58-3.21,182.36,39,262.68,63.65q11.3,3.52,22.75,6.64c95.68,25.67,195.52,29.23,291.69-4.49,106.37-37.29,207.2-125.75,240.11-244.66"/><path class="cls-14" d="M134.76,1020.08C211.6,946,297.54,881.67,389,827.56c40.62-24,82.84-46.31,128.15-60C604.4,741.2,693,749.63,774.84,772.4c25.08,6.89,49.53,15.09,73.17,24,92.71,35.24,180.2,82.66,260.39,139.65,80,56.61,151.72,125.64,237.85,182.26,84.84,55.76,173,111.82,269.88,146.12,85.29,30.1,181.78,40.34,269.77,10.09a312.55,312.55,0,0,0,37.1-15.46c95.29-47.13,158.15-138,206.91-232.92,13-25.31,25-50.91,36.48-76.19,35.64-78.51,71.56-158.79,112-233.24,62.33-114.11,143-205.65,248.21-277.33,53.73-36.61,120.07-68.28,189.06-71.29,96.37-4,177.82,32.45,256.65,51.67q11.09,2.75,22.29,5.09c93.72,19.22,190,16.15,280.65-21.54,100.71-41.86,193.53-131.11,221.94-247.06"/><path class="cls-15" d="M145.08,1057.63C220.21,985,304.72,922.42,394.84,870.4c40-23.1,81.58-44.36,125.94-57.78,85.25-25.8,172-20,252.81-.54,24.79,5.9,49,13,72.52,20.91,92.13,31.1,179.52,74.37,260.14,127.21,80.42,52.52,153.24,117.23,238.11,171.73,87.53,56.21,177.09,114.06,276.06,149.86,87,31.41,185.87,42.72,276,12.33a316.22,316.22,0,0,0,38-15.61c97.75-47.81,161.8-140.8,212.14-237.9,13.37-25.84,25.81-52,37.78-77.75,37.08-80,75.26-161.69,118.55-237.19,66.76-115.81,152.68-207.89,263.39-277.81,53.23-33.62,117.75-62.73,184.58-66.32,93.15-4.82,173.26,25.95,250.61,39.7q10.88,2,21.83,3.54c91.76,12.78,184.38,3.05,269.61-38.59,95.05-46.44,179.86-136.48,203.78-249.45"/><path class="cls-16" d="M155.39,1095.18c73.42-71.22,156.51-132,245.27-181.94,39.41-22.17,80.32-42.4,123.73-55.56,83.27-25.24,168.22-22.11,248-5.92,24.49,4.9,48.49,11,71.86,17.81,91.54,27,178.85,66.07,259.9,114.77,80.88,48.43,154.77,108.77,238.35,161.2,90.25,56.61,181.23,116.3,282.24,153.61,88.73,32.7,190,45.1,282.24,14.57a319.16,319.16,0,0,0,39-15.78c100.21-48.49,165.46-143.63,217.36-242.86,13.78-26.39,26.65-53.06,39.09-79.32,38.52-81.46,79-164.6,125.12-241.13,71.19-117.51,162.22-210.46,278.57-278.3,52.71-30.73,115.44-57.17,180.1-61.34,89.93-5.63,168.71,19.43,244.57,27.72q10.65,1.2,21.38,2c89.78,6.32,178.78-10.08,258.56-55.65,89.37-51.05,166.19-141.84,185.61-251.84"/><path class="cls-17" d="M165.7,1132.73c71.71-69.78,153.37-128.79,240.78-176.64,38.81-21.25,79.07-40.46,121.53-53.35,81.27-24.67,164.4-24.2,243.09-11.29,24.2,3.9,48,8.93,71.21,14.7,91,22.82,178.17,57.78,259.65,102.34,81.35,44.32,156.33,100.27,238.61,150.66,93,56.95,185.36,118.54,288.42,157.35,90.45,34,194.07,47.49,288.48,16.82a323.56,323.56,0,0,0,39.94-15.94c102.67-49.17,169.11-146.48,222.58-247.84,14.19-26.92,27.49-54.13,40.39-80.88,40-82.93,82.67-167.5,131.7-245.08,75.62-119.21,171.65-213.36,293.75-278.78,52.17-27.95,113.12-51.61,175.62-56.37,86.71-6.43,164.15,12.92,238.53,15.75q10.44.42,20.92.45c87.82-.13,173.17-23.23,247.51-72.71,83.68-55.68,152.53-147.2,167.46-254.22"/><path class="cls-18" d="M176,1170.28c70-68.35,150.23-125.59,236.28-171.35,38.21-20.32,77.81-38.51,119.32-51.13,79.29-24.11,160.58-26.29,238.24-16.67,23.89,2.9,47.45,6.88,70.55,11.6,90.37,18.68,177.49,49.49,259.4,89.9,81.82,40.23,157.9,91.75,238.86,140.13,95.77,57.23,189.49,120.78,294.61,161.09,92.17,35.3,198.17,49.87,294.71,19.07a328.8,328.8,0,0,0,40.89-16.11C2074,1287,2141.64,1187.49,2196.69,1084c14.59-27.46,28.32-55.2,41.69-82.44,41.42-84.41,86.38-170.41,138.27-249,80-120.91,181-216.65,308.93-279.27,51.65-25.28,110.81-46.06,171.14-51.39,83.49-7.24,159.6,6.4,232.49,3.76,6.82-.23,13.64-.58,20.47-1.09,85.84-6.57,167.53-36.4,236.46-89.76,78-60.34,138.86-152.56,149.29-256.62"/><path class="cls-19" d="M186.33,1207.83c68.28-66.91,147.1-122.38,231.79-166.06,37.6-19.39,76.55-36.55,117.11-48.91,77.31-23.55,156.77-28.38,233.39-22.05,23.59,1.91,46.92,4.83,69.89,8.51,89.79,14.53,176.81,41.19,259.16,77.46s159.47,83.18,239.1,129.59c98.58,57.44,193.63,123,300.79,164.83,93.89,36.6,202.27,52.26,301,21.31a331.65,331.65,0,0,0,41.83-16.26c107.59-50.53,176.41-152.16,233-257.79,15-28,29.16-56.27,43-84,42.86-85.89,90.08-173.31,144.84-253,84.48-122.6,190.24-220.34,324.11-279.75,51.14-22.7,108.49-40.5,166.66-46.42,80.27-8,155-.11,226.45-8.21q10-1.11,20-2.63a435.48,435.48,0,0,0,225.42-106.82c72.19-65,125.19-157.93,131.13-259"/><path class="cls-20" d="M196.64,1245.37c66.57-65.46,144-119.16,227.31-160.76,37-18.46,75.28-34.6,114.89-46.69,75.32-23,153-30.47,228.53-27.42,23.3.9,46.41,2.76,69.25,5.4,89.19,10.4,176.13,32.9,258.9,65s161.06,74.6,239.36,119c101.42,57.59,197.75,125.27,307,168.59,95.61,37.9,206.37,54.63,307.19,23.55a335.64,335.64,0,0,0,42.77-16.43c110.07-51.21,180.07-155,238.27-262.75,15.4-28.54,30-57.35,44.3-85.57,44.3-87.36,93.78-176.22,151.41-256.91C2514.7,646.14,2625.24,546,2765.08,490.21c50.68-20.21,106.18-34.95,162.18-41.44,77-8.85,150.49-6.63,220.41-20.19q9.79-1.89,19.55-4.18c81.91-19.48,156.18-62.78,214.38-123.87,66.4-69.7,111.51-163.29,113-261.4"/><path class="cls-21" d="M207,1282.92c64.86-64,140.82-116,222.81-155.46A795.23,795.23,0,0,1,542.46,1083c73.33-22.43,149.14-32.56,223.67-32.8q34.5-.14,68.59,2.3c88.61,6.26,175.45,24.61,258.65,52.59S1256,1171,1333,1213.58c104.3,57.66,201.89,127.5,313.16,172.33,97.33,39.2,210.46,57,313.42,25.8a339.75,339.75,0,0,0,43.72-16.59c112.53-51.89,183.72-157.85,243.49-267.73,15.81-29.07,30.82-58.42,45.61-87.13,45.74-88.84,97.48-179.13,158-260.86,93.35-126,208.65-229.06,354.47-280.72,50.28-17.82,103.86-29.39,157.7-36.47,73.84-9.65,145.94-13.14,214.37-32.16q9.58-2.66,19.1-5.73c79.94-25.92,150.44-76,203.33-140.92,60.56-74.38,97.84-168.66,94.8-263.8"/><path class="cls-22" d="M217.27,1320.47c144.18-142.9,347.75-221,547.61-230.61s395.62,45.61,566.21,137.33c107.2,57.64,206,129.74,319.33,176.07s248.17,64.4,364.33,11.29c145.38-66.46,222.66-221.72,295.63-361.39,120-229.67,284-468.39,534.2-546,124.6-38.67,259.37-32.74,380.19-82.9C3392.3,354.69,3507.8,172.5,3493.69.08"/></g></g></svg>