<svg xmlns="http://www.w3.org/2000/svg" xmlns:xlink="http://www.w3.org/1999/xlink" viewBox="0 0 3761.89 1150.02"><defs><style>.cls-1,.cls-10,.cls-11,.cls-12,.cls-13,.cls-14,.cls-15,.cls-16,.cls-17,.cls-18,.cls-19,.cls-2,.cls-20,.cls-21,.cls-22,.cls-3,.cls-4,.cls-5,.cls-6,.cls-7,.cls-8,.cls-9{fill:none;stroke-miterlimit:10;stroke-width:2px;}.cls-1{stroke:url(#Degradado_sin_nombre_221);}.cls-2{stroke:url(#Degradado_sin_nombre_221-2);}.cls-3{stroke:url(#Degradado_sin_nombre_221-3);}.cls-4{stroke:url(#Degradado_sin_nombre_221-4);}.cls-5{stroke:url(#Degradado_sin_nombre_221-5);}.cls-6{stroke:url(#Degradado_sin_nombre_221-6);}.cls-7{stroke:url(#Degradado_sin_nombre_221-7);}.cls-8{stroke:url(#Degradado_sin_nombre_221-8);}.cls-9{stroke:url(#Degradado_sin_nombre_221-9);}.cls-10{stroke:url(#Degradado_sin_nombre_221-10);}.cls-11{stroke:url(#Degradado_sin_nombre_221-11);}.cls-12{stroke:url(#Degradado_sin_nombre_221-12);}.cls-13{stroke:url(#Degradado_sin_nombre_221-13);}.cls-14{stroke:url(#Degradado_sin_nombre_221-14);}.cls-15{stroke:url(#Degradado_sin_nombre_221-15);}.cls-16{stroke:url(#Degradado_sin_nombre_221-16);}.cls-17{stroke:url(#Degradado_sin_nombre_221-17);}.cls-18{stroke:url(#Degradado_sin_nombre_221-18);}.cls-19{stroke:url(#Degradado_sin_nombre_221-19);}.cls-20{stroke:url(#Degradado_sin_nombre_221-20);}.cls-21{stroke:url(#Degradado_sin_nombre_221-21);}.cls-22{stroke:url(#Degradado_sin_nombre_221-22);}</style><linearGradient id="Degradado_sin_nombre_221" x1="210.32" y1="495.16" x2="3543.86" y2="495.16" gradientUnits="userSpaceOnUse"><stop offset="0.01" stop-color="#83bb33"/><stop offset="1" stop-color="#e7de37"/></linearGradient><linearGradient id="Degradado_sin_nombre_221-2" x1="200.32" y1="504.26" x2="3554.24" y2="504.26" xlink:href="#Degradado_sin_nombre_221"/><linearGradient id="Degradado_sin_nombre_221-3" x1="190.31" y1="513.42" x2="3564.62" y2="513.42" xlink:href="#Degradado_sin_nombre_221"/><linearGradient id="Degradado_sin_nombre_221-4" x1="180.31" y1="522.62" x2="3575" y2="522.62" xlink:href="#Degradado_sin_nombre_221"/><linearGradient id="Degradado_sin_nombre_221-5" x1="170.3" y1="531.88" x2="3585.39" y2="531.88" xlink:href="#Degradado_sin_nombre_221"/><linearGradient id="Degradado_sin_nombre_221-6" x1="160.3" y1="541.21" x2="3595.77" y2="541.21" xlink:href="#Degradado_sin_nombre_221"/><linearGradient id="Degradado_sin_nombre_221-7" x1="150.29" y1="551.38" x2="3606.15" y2="551.38" xlink:href="#Degradado_sin_nombre_221"/><linearGradient id="Degradado_sin_nombre_221-8" x1="140.28" y1="572.93" x2="3616.53" y2="572.93" xlink:href="#Degradado_sin_nombre_221"/><linearGradient id="Degradado_sin_nombre_221-9" x1="130.27" y1="594.43" x2="3626.92" y2="594.43" xlink:href="#Degradado_sin_nombre_221"/><linearGradient id="Degradado_sin_nombre_221-10" x1="120.26" y1="615.9" x2="3637.3" y2="615.9" xlink:href="#Degradado_sin_nombre_221"/><linearGradient id="Degradado_sin_nombre_221-11" x1="110.25" y1="637.31" x2="3647.68" y2="637.31" xlink:href="#Degradado_sin_nombre_221"/><linearGradient id="Degradado_sin_nombre_221-12" x1="100.24" y1="658.66" x2="3658.06" y2="658.66" xlink:href="#Degradado_sin_nombre_221"/><linearGradient id="Degradado_sin_nombre_221-13" x1="90.22" y1="679.94" x2="3668.45" y2="679.94" xlink:href="#Degradado_sin_nombre_221"/><linearGradient id="Degradado_sin_nombre_221-14" x1="80.21" y1="701.15" x2="3678.83" y2="701.15" xlink:href="#Degradado_sin_nombre_221"/><linearGradient id="Degradado_sin_nombre_221-15" x1="70.19" y1="722.26" x2="3689.21" y2="722.26" xlink:href="#Degradado_sin_nombre_221"/><linearGradient id="Degradado_sin_nombre_221-16" x1="60.17" y1="743.29" x2="3699.59" y2="743.29" xlink:href="#Degradado_sin_nombre_221"/><linearGradient id="Degradado_sin_nombre_221-17" x1="50.15" y1="764.23" x2="3709.98" y2="764.23" xlink:href="#Degradado_sin_nombre_221"/><linearGradient id="Degradado_sin_nombre_221-18" x1="40.12" y1="785.08" x2="3720.36" y2="785.08" xlink:href="#Degradado_sin_nombre_221"/><linearGradient id="Degradado_sin_nombre_221-19" x1="30.1" y1="805.86" x2="3730.74" y2="805.86" xlink:href="#Degradado_sin_nombre_221"/><linearGradient id="Degradado_sin_nombre_221-20" x1="20.07" y1="826.57" x2="3741.12" y2="826.57" xlink:href="#Degradado_sin_nombre_221"/><linearGradient id="Degradado_sin_nombre_221-21" x1="10.03" y1="847.22" x2="3751.51" y2="847.22" xlink:href="#Degradado_sin_nombre_221"/><linearGradient id="Degradado_sin_nombre_221-22" x1="0" y1="867.82" x2="3761.89" y2="867.82" xlink:href="#Degradado_sin_nombre_221"/></defs><g id="Capa_2" data-name="Capa 2"><g id="Capa_2-2" data-name="Capa 2"><path class="cls-1" d="M3543.65,89.1c-141.91-29.62-285.92-54.55-431-74.59-64.49-8.91-130.78-16.9-193.71-12-160.87,12.44-251.35,102.67-301.48,189.4C2571.3,271.76,2542.55,356,2532,442.15c-10.43,85.4-3.45,174.12-48.83,253.36S2323,844.72,2172.06,842.09c-89.83-1.57-179.48-28.82-249.62-65.92s-123.06-83.48-169.72-130.63c-53.43-54-103.84-112.53-191.88-149.31-91.13-38.07-215-44.82-303.21-16.53C1132.09,520,1098.87,612.4,1055.38,692.4,1000.13,794,907.45,891.07,753.24,946.75s-379.13,60.84-542.52-9.08"/><path class="cls-2" d="M3554,114.36c-141.28-29.61-284.93-53.77-429.3-72.47-64.29-8.3-130.23-15.56-192.84-10.41a437.44,437.44,0,0,0-69.51,11.21c-117,29-188.86,102.68-232.8,174.33-47.63,78-78,160.42-90.86,244.86-12.86,84.24-8.92,171.84-55.73,250q-3.16,5.26-6.72,10.47c-50.75,73.95-162.17,136.83-306,134.37-90-1.53-179.54-28.53-250.35-65.29-70.17-36.55-123-83-171.33-128.53-61.07-57.52-123.88-115.64-220.33-151.1-93.8-34.49-217.3-41.1-307.77-13.35-121.86,37.38-155.22,126.24-198.63,202.12-55.33,96.36-146.07,188.55-295.5,240.13-150.59,52-368.21,54.23-525.64-14.85"/><path class="cls-3" d="M3564.42,139.61c-140.66-29.59-284-53-427.62-70.34-64.08-7.7-129.67-14.22-192-8.79a449.45,449.45,0,0,0-69.18,11.33c-115.9,28.67-188.44,100.33-234,170.36-49.1,76.05-81,156.75-96.27,239.45-15.32,83.08-14.4,169.55-62.65,246.59q-3.24,5.19-6.89,10.32c-52.27,73.14-163.93,135.18-307.4,132.78-90.11-1.5-179.61-28.23-251.07-64.67-70.2-36-123.21-82.36-172.94-126.41-68.9-61-143.76-118.88-248.78-152.9-96.29-31.19-219.62-37.36-312.33-10.17-118.14,34.65-151.7,119.79-195,191.54-55.42,91.09-144.23,178.42-288.86,225.91-147,48.27-357.29,47.61-508.76-20.61"/><path class="cls-4" d="M3574.8,164.87c-140-29.57-283-52.2-425.93-68.21-63.88-7.1-129.12-12.89-191.1-7.18a460.71,460.71,0,0,0-68.85,11.46c-114.8,28.38-188.18,97.87-235.12,166.37-50.73,74-84.1,153.1-101.69,234-17.79,81.93-19.87,167.27-69.55,243.21-2.23,3.41-4.58,6.81-7.07,10.17-53.63,72.43-165.68,133.54-308.8,131.2-90.25-1.47-179.68-27.95-251.79-64-70.22-35.43-123.59-81.57-174.56-124.3-76.87-64.44-163.5-122.28-277.23-154.71-98.62-28.12-221.9-33.59-316.89-7-114.35,32-148,113.45-191.4,181-55.28,86-142.41,168.26-282.21,211.69-143.43,44.55-346.37,41-491.88-26.37"/><path class="cls-5" d="M3585.18,190.12c-139.39-29.55-282-51.42-424.24-66.08-63.68-6.49-128.56-11.55-190.22-5.57a475.74,475.74,0,0,0-68.53,11.59c-113.69,28.09-187.8,95.49-236.28,162.39a663.47,663.47,0,0,0-107.1,228.64c-20.29,80.79-25.36,165-76.46,239.82-2.29,3.36-4.7,6.71-7.25,10-55.11,71.65-167.44,131.9-310.2,129.61-90.4-1.43-179.75-27.66-252.51-63.43-70.25-34.87-124.1-80.64-176.17-122.18-85-67.78-183.14-125.82-305.69-156.51-100.86-25.26-224.15-29.81-321.45-3.8C998.56,584.16,964.67,661.65,921.3,725,866,805.74,780.68,883.08,645.73,922.46c-139.88,40.82-335.45,34.39-475-32.13"/><path class="cls-6" d="M3595.56,215.37c-138.76-29.53-281-50.63-422.55-64-63.47-5.89-128-10.21-189.35-3.95a492.3,492.3,0,0,0-68.2,11.71C2802.87,187,2728.05,252.29,2678,317.6A667.66,667.66,0,0,0,2565.5,540.82c-22.81,79.66-30.83,162.7-83.36,236.43q-3.54,5-7.43,9.88c-56.6,70.86-169.2,130.25-311.6,128-90.54-1.41-179.89-27.21-253.23-62.82-70.36-34.15-124.71-79.61-177.79-120.06-93.18-71-202.7-129.53-334.14-158.32-103-22.56-226.37-26-326-.61C965.3,600.51,931.11,674,887.77,733.15,832.45,808.68,748.93,881,618.85,916.39,482.5,953.46,294.32,944.17,160.74,878.5"/><path class="cls-7" d="M3605.94,240.63c-138.13-29.51-280-49.85-420.86-61.83-63.27-5.28-127.45-8.87-188.48-2.33a507.26,507.26,0,0,0-67.87,11.83c-111.48,27.52-187,90.73-238.6,154.44A672.88,672.88,0,0,0,2572.2,560.56c-25.36,78.52-36.31,160.41-90.27,233-2.42,3.26-4.95,6.52-7.61,9.73-58.09,70.07-171,128.61-313,126.44-90.68-1.37-180-26.89-254-62.19C1837,834,1782,789.08,1728,749.63c-101.51-74.15-222.21-133.38-362.6-160.12-105.15-20-228.57-22.14-330.56,2.56C932.07,617,897.55,686.3,854.25,741.3c-55.36,70.32-137.09,137.64-262.28,169-132.86,33.3-313.61,21.16-441.23-43.66"/><path class="cls-8" d="M3616.32,265.88c-137.5-29.49-279-49.06-419.17-59.7-63.06-4.68-126.9-7.53-187.61-.71A525,525,0,0,0,2942,217.42c-110.38,27.24-186.61,88.36-239.76,150.46a679.83,679.83,0,0,0-123.35,212.41c-27.92,77.4-41.78,158.13-97.17,229.66-2.49,3.21-5.08,6.42-7.79,9.58-59.59,69.28-172.71,127-314.4,124.86-90.82-1.34-180-26.59-254.68-61.58-70.42-33-126.13-77.31-181-115.83-109.91-77.17-241.68-137.4-391-161.92C1225.56,587.45,1102,586.8,997.67,610.8,898.88,633.52,864,698.62,820.73,749.45c-55.4,65.11-135.38,127.37-255.63,154.8-129.4,29.51-302.69,14.55-424.35-49.42"/><path class="cls-9" d="M3626.71,291.13c-136.87-29.47-278-48.28-417.49-57.57-62.86-4.07-126.35-6.19-186.74.91a542.91,542.91,0,0,0-67.21,12.08c-109.28,26.94-186.2,86-240.93,146.48-58.18,64.31-99.89,134.89-128.75,207-30.52,76.26-47.26,155.84-104.08,226.27-2.56,3.16-5.2,6.32-8,9.43-61.08,68.48-174.45,125.32-315.78,123.27-91-1.31-180.12-26.29-255.41-61-70.45-32.44-126.92-76.06-182.62-113.72C1601.3,704.27,1458.6,642.77,1300.21,620.6c-109.3-15.3-232.9-14.31-339.68,8.93-94.81,20.64-130.14,81.41-173.32,128.07-55.46,59.9-133.69,117.06-249,140.58-126,25.69-291.77,7.93-407.47-55.18"/><path class="cls-10" d="M3637.09,316.39c-136.24-29.45-277-47.5-415.79-55.44-62.67-3.48-125.8-4.86-185.88,2.52a564.09,564.09,0,0,0-66.87,12.2c-108.18,26.66-185.8,83.62-242.1,142.5-59.65,62.39-103.13,131.24-134.17,201.59-33.14,75.13-52.74,153.57-111,222.89-2.62,3.11-5.33,6.22-8.16,9.28-62.59,67.68-176.21,123.68-317.18,121.69-91.12-1.28-180.19-26-256.13-60.34-70.48-31.87-127.75-74.76-184.24-111.6-127-82.83-280.55-145.87-448-165.53-111.37-13.08-235-10.32-344.24,12.11-90.81,18.65-126.59,75-169.7,117.49-55.52,54.7-132,106.7-242.35,126.35-122.57,21.84-280.85,1.32-390.59-60.94"/><path class="cls-11" d="M3647.47,341.64c-135.61-29.43-276-46.71-414.1-53.31-62.46-2.87-125.25-3.52-185,4.14a590.4,590.4,0,0,0-66.54,12.32c-107.08,26.37-185.37,81.26-243.26,138.52C2677.45,503.78,2632.17,570.9,2599,639.5c-35.79,74-58.22,151.28-117.89,219.49-2.69,3.07-5.45,6.13-8.34,9.14-64.11,66.87-178,122-318.58,120.1-91.26-1.24-180.26-25.69-256.85-59.71-70.51-31.32-128.59-73.41-185.85-109.5-135.65-85.47-300-150.3-476.42-167.33-113.43-10.94-237.14-6.26-348.8,15.3-86.78,16.75-123,68.6-166.09,106.91C664.57,823.39,589.77,870.19,484.46,886c-119.2,17.94-269.93-5.29-373.7-66.7"/><path class="cls-12" d="M3657.85,366.9c-135-29.41-275-45.93-412.41-51.19-62.26-2.26-124.69-2.18-184.13,5.76a616.76,616.76,0,0,0-66.22,12.44c-106,26.09-185,78.9-244.42,134.55C2688.1,527,2641,592.38,2605.67,659.24c-38.47,72.82-63.69,149-124.8,216.1-2.74,3-5.57,6-8.51,9-65.63,66.06-179.72,120.39-320,118.51-91.4-1.2-180.32-25.4-257.57-59.09-70.53-30.76-129.46-72-187.47-107.38-144.36-88-319.4-154.88-504.87-169.13-115.49-8.87-239.23-2.13-353.35,18.48-82.74,14.94-119.54,62.18-162.48,96.33C631,826.32,557.85,867.86,457.59,880c-115.87,14-259-11.91-356.83-72.46"/><path class="cls-13" d="M3668.23,392.15c-134.34-29.39-274-45.15-410.72-49.06-62.06-1.66-124.14-.84-183.26,7.38A644.39,644.39,0,0,0,3008.36,363c-104.87,25.8-184.51,76.55-245.58,130.57-64,56.63-113,120.25-150.41,185.37-41.17,71.66-69.17,146.71-131.71,212.72-2.81,3-5.69,5.92-8.69,8.84-67.16,65.25-181.48,118.75-321.38,116.93-91.55-1.18-180.39-25.12-258.3-58.48-70.55-30.2-130.34-70.59-189.08-105.26-153.14-90.38-338.84-159.58-533.32-170.93-117.57-6.87-241.3,2.08-357.91,21.65-78.67,13.21-116,55.78-158.86,85.76-55.8,39-127.22,75.27-222.41,83.69-112.57,10-248.09-18.52-339.94-78.23"/><path class="cls-14" d="M3678.61,417.4c-133.71-29.37-273.05-44.36-409-46.93-61.85-1.05-123.58.5-182.39,9q-34.11,4.89-65.56,12.69c-103.77,25.51-184.08,74.2-246.74,126.58-65.46,54.73-116.33,116.56-155.83,180-43.89,70.47-74.64,144.42-138.61,209.33-2.87,2.91-5.82,5.82-8.87,8.69-68.69,64.42-183.23,117.11-322.78,115.34-91.69-1.14-180.45-24.83-259-57.85-70.57-29.66-131.23-69.14-190.69-103.15-162-92.64-358.29-164.4-561.78-172.74-119.65-4.9-243.35,6.41-362.47,24.84-74.6,11.55-112.53,49.35-155.24,75.18C563.67,832.16,493.93,863,403.83,867.82c-109.29,5.85-237.17-25.14-323.06-84"/><path class="cls-15" d="M3689,442.66c-133.09-29.35-272.07-43.58-407.35-44.81-61.65-.45-123,1.84-181.52,10.62q-33.86,5-65.23,12.81c-102.66,25.22-183.63,71.86-247.9,122.61a767.46,767.46,0,0,0-161.24,174.55c-46.65,69.27-80.12,142.14-145.52,205.95-2.94,2.86-5.95,5.72-9,8.54-70.22,63.6-185,115.47-324.18,113.76-91.83-1.11-180.51-24.56-259.74-57.24-70.59-29.11-132.13-67.65-192.31-101-170.87-94.78-377.78-180.9-590.22-174.54-121.74,3.64-245.39,10.85-367,28-70.51,10-109,42.9-151.62,64.6C530,835.06,461.47,852.63,377,861.74,271.52,873.11,150.7,830,70.78,772"/><path class="cls-16" d="M3699.38,467.91c-132.46-29.33-271.07-42.8-405.66-42.67-61.44.15-122.48,3.17-180.65,12.23q-33.6,5.2-64.9,12.93C2946.61,475.34,2865,519.93,2799.11,569a786.43,786.43,0,0,0-166.66,169.15C2583,806.22,2546.85,878,2480,940.73c-3,2.82-6.07,5.63-9.23,8.4C2399,1011.89,2284.06,1063,2145.22,1061.3c-92-1.08-180.57-24.29-260.46-56.61-70.61-28.57-133-66.15-193.92-98.92C1511,809,1293.45,721,1072.16,729.42c-123.78,4.74-247.41,15.45-371.59,31.21-66.42,8.43-105.57,36.44-148,54-56.23,23.28-122.74,35.71-202.47,41-102.6,6.84-215.33-38.36-289.3-95.51"/><path class="cls-17" d="M3709.76,493.16c-131.82-29.31-270.08-42-404-40.54-61.24.76-121.92,4.51-179.78,13.85q-33.33,5.36-64.57,13C2961,504.17,2878.7,546.73,2811.22,594.17a807.36,807.36,0,0,0-172.07,163.74c-52.21,66.79-91.08,137.57-159.33,199.17-3.07,2.77-6.2,5.53-9.41,8.25-73.31,61.92-188.5,112.18-327,110.59-92.13-1.05-180.64-24-261.19-56-70.63-28-133.94-64.61-195.54-96.8-188.81-98.68-417-188.62-647.13-178.15-125.87,5.72-249.41,20.22-376.15,34.39-62.33,7-102.1,29.95-144.4,43.44C462.63,840.77,398,855,323.2,849.6c-99.54-7.14-204.41-45-272.42-101.27"/><path class="cls-18" d="M3720.14,518.42C3589,489.13,3451.05,477.19,3317.86,480c-61,1.36-121.37,5.85-178.9,15.47q-33.09,5.5-64.24,13.17c-99.36,24.37-182.3,64.9-251.39,110.68a829.42,829.42,0,0,0-177.49,158.33c-55,65.5-96.55,135.28-166.23,195.78-3.13,2.72-6.33,5.43-9.6,8.1-74.84,61.08-190.25,110.54-328.36,109-92.27-1-180.63-23.9-261.92-55.37-70.59-27.63-134.84-63.06-197.14-94.69C1484.75,840,1246.32,755.75,1007,760.52c-128.14,2.55-251.4,25.21-380.71,37.57-58.24,5.56-98.63,23.44-140.78,32.85C429,843.58,366,852.06,296.32,843.53c-96.25-11.79-193.49-51.59-255.53-107"/><path class="cls-19" d="M3730.52,543.67c-130.56-29.27-268.1-40.44-400.59-36.29-60.83,2-120.81,7.19-178,17.09q-32.83,5.65-63.91,13.3a867.15,867.15,0,0,0-435.45,259.61c-57.83,64.2-102,133-173.14,192.4q-4.8,4-9.78,7.94c-76.51,60.09-192,108.9-329.76,107.43-92.41-1-180.7-23.62-262.64-54.76-70.61-27.07-135.74-61.49-198.76-92.57-206.91-102.08-455.81-190-704-181.76-130.3,4.34-253.4,30.47-385.27,40.75C535,821,494,833.72,452,839.09c-56.72,7.26-117.9,9.94-182.55-1.63-92.9-16.64-182.56-58.21-238.65-112.8"/><path class="cls-20" d="M3740.9,568.93C3611,539.67,3473.79,529.26,3342,534.76c-60.63,2.57-120.26,8.53-177.16,18.71q-32.58,5.81-63.58,13.42A947.36,947.36,0,0,0,2847.55,669.6c-74,43.57-136.66,94-188.32,147.52-60.66,62.86-107.5,130.72-180,189-3.27,2.62-6.58,5.22-10,7.79-78,59.27-193.76,107.26-331.16,105.84-92.55-1-180.77-23.33-263.36-54.14-70.64-26.51-136.65-59.89-200.37-90.46-216-103.59-475.39-195.41-732.5-183.55C809.37,797.72,686.45,827.67,552,835.54c-50.09,2.94-91.67,10.35-133.55,11.7-56.86,1.84-116.22-1.36-175.9-15.86C153.13,809.66,70.92,766.57,20.8,712.83"/><path class="cls-21" d="M3751.29,594.18c-129.3-29.23-266.13-38.88-397.22-32-60.42,3.18-119.7,9.87-176.29,20.33q-32.33,6-63.25,13.54c-96.05,23.5-180.9,58.06-254.87,98.74-75.46,41.65-140.08,90.13-193.73,142.1-63.5,61.51-113,128.44-186.95,185.62-3.33,2.57-6.71,5.13-10.14,7.65-79.54,58.45-195.51,105.62-332.56,104.25-92.7-.91-180.83-23-264.08-53.51-70.67-26-137.55-58.3-202-88.35-225.16-105-495-200.87-760.95-185.36C774.6,815,651.85,849.22,514.88,854.27c-46.05,1.7-88.15,3.77-129.94,1.12-57-3.6-114.41-12.78-169.25-30.08C129.9,798.25,55,753.88,10.8,701"/><path class="cls-22" d="M3761.67,619.43c-210.68-47.83-442.26-41.15-633.87,5.7s-344.87,131.51-455.18,231.46c-69.32,62.81-123.12,132.1-204.17,189.73s-197.27,104-334,102.67c-171.06-1.63-325.91-74.49-468.4-139.13C1431.76,903.57,1151.47,803.45,876.68,822.7c-136.87,9.59-259.46,48.61-398.94,50.3C284.36,875.34,79.51,796.38.81,689.16"/></g></g></svg>