<svg width="143" height="57" viewBox="0 0 143 57" fill="none" xmlns="http://www.w3.org/2000/svg">
<g clip-path="url(#clip0_2_4)">
<path d="M6.10352e-05 0H4.17848V20.3112L13.8655 8.96615H19.6954L7.85084 21.7128L19.7399 34.5534H14.0501L4.17848 23.2535V34.5534H6.10352e-05V0Z" fill="white"/>
<path d="M27.8197 34.5534H23.6412V8.96614H27.8197V13.1223C29.2421 10.2738 31.9502 8.50006 35.9474 8.50006V12.8893H34.843C30.8492 12.8893 27.8197 14.7082 27.8197 20.6381V34.5534Z" fill="white"/>
<path d="M49.8437 8.54535C54.5248 8.54535 57.7389 10.9799 59.2092 13.637V8.96617H63.4321V34.5534H59.2092V29.792C57.6944 32.5466 54.4221 34.9742 49.7958 34.9742C43.0939 34.9742 37.9067 29.6043 37.9067 21.6676C37.9067 13.731 43.0939 8.54535 49.8437 8.54535ZM50.6677 12.2354C46.079 12.2354 42.1741 15.6438 42.1741 21.6676C42.1741 27.6914 46.079 31.2389 50.6677 31.2389C55.2565 31.2389 59.2161 27.7366 59.2161 21.7128C59.2092 15.7829 55.2599 12.2528 50.6677 12.2528V12.2354Z" fill="white"/>
<path d="M85.4457 12.4197L73.1875 31.0545H85.5381V34.5534H68.414V31.0545L80.6245 12.4197H68.5063V8.96613H85.4457V12.4197Z" fill="white"/>
<path d="M103.879 34.696C96.8493 36.0872 90.7047 32.0667 89.1763 24.0917C87.6478 16.1168 91.71 10.1799 98.9179 8.75049C106.126 7.32106 111.751 11.5329 113.067 18.4157C113.228 19.2583 113.342 20.1095 113.409 20.9651L93.6692 24.8673C94.9583 29.8929 99.0069 31.9936 103.199 31.1658C106.895 30.4354 108.868 28.0357 109.255 25.163L113.669 24.29C113.293 29.1243 110 33.4683 103.879 34.696ZM93.0743 21.4798L108.666 18.3983C107.774 13.484 103.654 11.4911 99.4343 12.3293C95.4063 13.1084 92.5887 16.4715 93.0743 21.4659V21.4798Z" fill="white"/>
<path d="M133.204 34.696C126.173 36.0872 120.029 32.0701 118.5 24.0952C116.972 16.1203 121.031 10.1834 128.242 8.75397C135.454 7.32454 141.075 11.5363 142.391 18.4192C142.552 19.2607 142.666 20.1106 142.733 20.9651L122.993 24.8708C124.283 29.8964 128.331 31.997 132.523 31.1658C136.219 30.4354 138.192 28.0357 138.579 25.1664L142.993 24.2935C142.617 29.1243 139.334 33.4856 133.204 34.696ZM122.398 21.4798L137.991 18.3948C137.098 13.484 132.978 11.4911 128.741 12.3293C124.73 13.1118 121.913 16.475 122.398 21.4693V21.4798Z" fill="white"/>
<path d="M103.308 39.9407H101.27V56.7948H103.308H109.555V54.7045H103.308V39.9407Z" fill="white"/>
<path d="M124.221 46.594C123.503 45.2932 121.937 44.1108 119.653 44.1108C116.36 44.1108 113.84 46.6149 113.84 50.5102C113.84 54.4055 116.37 57 119.653 57C121.913 57 123.503 55.8175 124.245 54.4715V56.7948H126.297V44.3159H124.245L124.221 46.594ZM120.053 55.1775C117.817 55.1775 115.912 53.4386 115.912 50.5102C115.912 47.5817 117.817 45.9088 120.053 45.9088C122.289 45.9088 124.221 47.6478 124.221 50.531C124.221 53.4143 122.31 55.1775 120.053 55.1775Z" fill="white"/>
<path d="M137.18 44.1108C136.264 44.083 135.356 44.3022 134.55 44.7463C133.743 45.1903 133.066 45.8434 132.588 46.6393V39.9407H130.537V56.7948H132.588V54.4959C133.351 55.8627 134.941 57 137.18 57C140.473 57 142.993 54.3811 142.993 50.5102C142.993 46.6392 140.494 44.1108 137.18 44.1108ZM136.753 55.1775C134.537 55.1775 132.588 53.4699 132.588 50.5311C132.588 47.5922 134.537 45.9089 136.753 45.9089C138.969 45.9089 140.918 47.5713 140.918 50.5102C140.918 53.449 139.016 55.1775 136.753 55.1775Z" fill="white"/>
<path d="M93.0196 49.5155L0 50.9067V46.0375L93.0196 47.4287V49.5155Z" fill="white"/>
</g>
<defs>
<clipPath id="clip0_2_4">
<rect width="143" height="57" fill="white"/>
</clipPath>
</defs>
</svg>
