<svg xmlns="http://www.w3.org/2000/svg" viewBox="0 0 640.76 637.24"><defs><style>.cls-1,.cls-5,.cls-6,.cls-7,.cls-8{font-size:142.95px;fill:#fff;font-family:Baliw-Regular, Baliw;}.cls-2{letter-spacing:0.01em;}.cls-3{letter-spacing:-0.03em;}.cls-4{letter-spacing:-0.04em;}.cls-5{opacity:0.65;}.cls-6{opacity:0.5;}.cls-7{opacity:0.35;}.cls-8{opacity:0.15;}</style></defs><g id="Capa_2" data-name="Capa 2"><g id="Capa_2-2" data-name="Capa 2"><text class="cls-1" transform="translate(0 121.87)">R<tspan class="cls-2" x="101.07" y="0">E</tspan><tspan x="195.7" y="0">M</tspan><tspan class="cls-3" x="341.8" y="0">O</tspan><tspan class="cls-4" x="450.3" y="0">T</tspan><tspan x="525.78" y="0">O</tspan></text><text class="cls-5" transform="translate(0 244.13)">R<tspan class="cls-2" x="101.07" y="0">E</tspan><tspan x="195.7" y="0">M</tspan><tspan class="cls-3" x="341.8" y="0">O</tspan><tspan class="cls-4" x="450.3" y="0">T</tspan><tspan x="525.78" y="0">O</tspan></text><text class="cls-6" transform="translate(0 366.4)">R<tspan class="cls-2" x="101.07" y="0">E</tspan><tspan x="195.7" y="0">M</tspan><tspan class="cls-3" x="341.8" y="0">O</tspan><tspan class="cls-4" x="450.3" y="0">T</tspan><tspan x="525.78" y="0">O</tspan></text><text class="cls-7" transform="translate(0 488.66)">R<tspan class="cls-2" x="101.07" y="0">E</tspan><tspan x="195.7" y="0">M</tspan><tspan class="cls-3" x="341.8" y="0">O</tspan><tspan class="cls-4" x="450.3" y="0">T</tspan><tspan x="525.78" y="0">O</tspan></text><text class="cls-8" transform="translate(0 610.94)">R<tspan class="cls-2" x="101.07" y="0">E</tspan><tspan x="195.7" y="0">M</tspan><tspan class="cls-3" x="341.8" y="0">O</tspan><tspan class="cls-4" x="450.3" y="0">T</tspan><tspan x="525.78" y="0">O</tspan></text></g></g></svg>