<svg xmlns="http://www.w3.org/2000/svg" viewBox="0 0 565.74 458.71"><defs><style>.cls-1{fill:#fff;}</style></defs><g id="Capa_2" data-name="Capa 2"><g id="Capa_2-2" data-name="Capa 2"><path class="cls-1" d="M353.38,135.91l.56.57a211.46,211.46,0,0,1,17.56,56.35,373,373,0,0,1,5.09,62,365.13,365.13,0,0,1-7.64,75Q361.3,366.41,341.48,395T288,441.15q-33.71,17.55-85.8,17.56-31.72,0-56.35-6.23t-43.6-17.56a126,126,0,0,1-32.28-27.18A165.45,165.45,0,0,1,47.57,373.2L33.41,343.75a187,187,0,0,1-26-64.84A367.41,367.41,0,0,1,0,205a359.07,359.07,0,0,1,7.93-75.88q7.92-36.81,28-65.69T90.61,17.27Q125.14,0,178.39,0q36.23,0,63.42,8.5T288.53,32A138.15,138.15,0,0,1,321.1,67.39a181.31,181.31,0,0,1,20.38,44.17l10.2,21ZM343.75,205a350.24,350.24,0,0,0-7.36-71.92Q329,98,310.34,71.07t-50.69-43.6q-32-16.71-81.26-16.71-50.41,0-82.68,16.71T44.46,71.07q-19,26.91-26.34,62a355.07,355.07,0,0,0,0,143.84q7.35,35.13,26.05,62.3t51,43.89q32.28,16.71,83.25,16.7,49.26,0,81.26-16.7t50.69-44.17q18.69-27.46,26.05-62.3A346,346,0,0,0,343.75,205Zm-96.84-1.7q0,11.89-1.41,28.89a238.29,238.29,0,0,1-5.38,34,138.53,138.53,0,0,1-11.33,31.42Q221.43,312,210.1,320l1.7-.56q-8.49,3.39-17,5.94a64.78,64.78,0,0,1-18.69,2.55q-23.22,0-36.81-11a71.77,71.77,0,0,1-21-28.6A132.09,132.09,0,0,1,109,248.89q-2-21.79-2-43.32,0-19.24,1.7-41.34a153.07,153.07,0,0,1,8.5-40.77A81.11,81.11,0,0,1,137.33,92q13.3-12.75,36-12.75,24.92,0,39.36,10.2a65,65,0,0,1,22.09,27.46q7.63,17.28,9.91,39.93T246.91,203.3ZM129.68,290c0,.76.19,1.13.57,1.13Zm107-86.65q0-14.72-.58-28.59a145.55,145.55,0,0,0-3.41-26.34q-13.11-10.19-35.32-10.19-19.93,0-31.33,11.61T148.71,179a150.14,150.14,0,0,0-7.41,38.23q-1.43,20.69-1.42,38.23,0,13,.28,25.76a137.41,137.41,0,0,0,2.57,24.07q12,11.89,33.6,11.89a63.36,63.36,0,0,0,19.94-3.39,132.52,132.52,0,0,0,19.94-28.32,180.81,180.81,0,0,0,12.53-30A166,166,0,0,0,235,227.09,195.62,195.62,0,0,0,236.72,203.3Z"/><path class="cls-1" d="M543.65,5.66l22.09,45.87V458.71H458.14l-23.22-48.14h-2.26V177.25l-49.27-58.89-21-43.61-5.09-6.23L449.08,0h94.57Zm-10.76,5.1H453L372.63,70.22l53.8,63.43,17-13V399.81h89.47Z"/></g></g></svg>